<svg xmlns="http://www.w3.org/2000/svg" width="59.677" height="64.72" viewBox="0 0 59.677 64.72">
  <g id="smartphone" transform="matrix(0.951, 0.309, -0.309, 0.951, 6.286, -3.848)">
    <path id="Path_1313" data-name="Path 1313" d="M56.54,4.557a.958.958,0,0,0-1.354,1.354,9.189,9.189,0,0,1,0,12.98.958.958,0,1,0,1.354,1.354A11.106,11.106,0,0,0,56.54,4.557Z" transform="translate(-2.316 -0.18)" fill="#b44446"/>
    <path id="Path_1314" data-name="Path 1314" d="M52.329,6.833a.958.958,0,0,0-1.354,1.354,6.291,6.291,0,0,1,0,8.886.958.958,0,1,0,1.354,1.354,8.206,8.206,0,0,0,0-11.594Z" transform="translate(-2.138 -0.276)" fill="#b44446"/>
    <path id="Path_1315" data-name="Path 1315" d="M4.6,5.911A.958.958,0,0,0,3.245,4.557a11.106,11.106,0,0,0,0,15.689A.958.958,0,1,0,4.6,18.891,9.188,9.188,0,0,1,4.6,5.911Z" transform="translate(0 -0.18)" fill="#b44446"/>
    <path id="Path_1316" data-name="Path 1316" d="M8.848,6.557a.957.957,0,0,0-1.354,0,8.206,8.206,0,0,0,0,11.594A.958.958,0,0,0,8.848,16.8a6.291,6.291,0,0,1,0-8.886A.958.958,0,0,0,8.848,6.557Z" transform="translate(-0.215 -0.265)" fill="#b44446"/>
    <circle id="Ellipse_92" data-name="Ellipse 92" cx="1.916" cy="1.916" r="1.916" transform="translate(26.819 48.849)" fill="#b44446"/>
    <path id="Path_1317" data-name="Path 1317" d="M41.347,0H17.219A4.225,4.225,0,0,0,13,4.219v49.03a4.225,4.225,0,0,0,4.219,4.22H41.346a4.225,4.225,0,0,0,4.22-4.219V4.219A4.225,4.225,0,0,0,41.347,0Zm-9.19,2.873h.958a.958.958,0,1,1,0,1.916h-.958a.958.958,0,0,1,0-1.916Zm-6.7,0h3.831a.958.958,0,1,1,0,1.916H25.452a.958.958,0,1,1,0-1.916ZM29.283,54.6a3.831,3.831,0,1,1,3.831-3.831A3.835,3.835,0,0,1,29.283,54.6ZM43.65,44.06H14.916V7.663H43.65Z" transform="translate(-0.548)" fill="#b44446"/>
  </g>
</svg>
