<svg xmlns="http://www.w3.org/2000/svg" xmlns:xlink="http://www.w3.org/1999/xlink" width="1162" height="811" viewBox="0 0 1162 811">
  <defs>
    <clipPath id="clip-path">
      <rect id="Rectangle_1698" data-name="Rectangle 1698" width="1162" height="811" transform="translate(141 771)" fill="#fff"/>
    </clipPath>
  </defs>
  <g id="Mask_Group_186" data-name="Mask Group 186" transform="translate(-141 -771)" clip-path="url(#clip-path)">
    <g id="Group_3083" data-name="Group 3083" transform="translate(1302.5 151.286) rotate(90)" opacity="0.15">
      <path id="Path_5724" data-name="Path 5724" d="M1148.983,1135.045a.611.611,0,0,0,.078-.143c0-.005.006-.009.008-.015l43.153-41.5,43.153,41.5c0,.006.006.01.008.015a.616.616,0,0,0,.077.143l5.451,26.216h1.22l-5.166-24.843,25.833,24.843h1.77l-27.411-26.36,127.8-42.835-14.285,68.706-1.46.489h2.853l-.229-.221,14.433-69.414,63.573-21.309-18.909,90.944h1.22l18.508-89.013v-3.55h-.008a.491.491,0,0,0-.076,0l-55.663-18.657,12.508-60.152a.635.635,0,0,0,.078-.144.13.13,0,0,1,.008-.014l43.153-41.5v-1.7L1402.146,919.1l28.521-137.169v-3.55a.434.434,0,0,0-.086,0l-55.661-18.656,12.508-60.152a.621.621,0,0,0,.078-.143c0-.006.007-.011.009-.016l43.152-41.5v-1.7l-28.521-27.427,28.521-137.169v-3.551a.577.577,0,0,0-.087,0l-55.659-18.655,12.508-60.152a.643.643,0,0,0,.078-.143c0-.006.006-.01.008-.016l43.153-41.5v-1.7l-28.521-27.427L1430.667,201.3v-3.551a.5.5,0,0,0-.087,0l-55.66-18.655,12.508-60.152a.634.634,0,0,0,.078-.144c0-.005.006-.009.008-.015l43.153-41.5v-1.7l-28.521-27.427L1412.159,0h-1.22l-9.81,47.178L1352.07,0h-2.852l-62.771,21.039L1264.569,0H1262.8l22.335,21.479-36.026,12.075L1242.132,0h-1.22l7.056,33.936-55.66,18.655a.636.636,0,0,0-.085,0,.61.61,0,0,0-.089,0l-55.66-18.655L1143.532,0h-1.219l-6.977,33.554L1099.31,21.479,1121.645,0h-1.769L1098,21.039,1035.226,0h-2.852L983.316,47.178,973.506,0h-1.22L982.3,48.156,953.778,75.584,925.257,48.156,935.27,0h-1.22l-9.81,47.178L875.181,0h-2.852L809.558,21.039,787.68,0h-1.769l22.335,21.479L772.22,33.554,765.243,0h-1.22l7.056,33.936L715.42,52.591a.63.63,0,0,0-.084,0,.617.617,0,0,0-.09,0L659.587,33.936,666.643,0h-1.22l-6.977,33.554L622.421,21.479,644.755,0h-1.769L621.108,21.039,558.337,0h-2.852L506.427,47.178,496.617,0H495.4L505.41,48.156,476.889,75.584l-28.52-27.427L458.381,0h-1.221l-9.81,47.178L398.292,0h-2.851L332.669,21.039,310.792,0h-1.769l22.335,21.479L295.331,33.554,288.354,0h-1.221l7.057,33.937L238.53,52.592a2.919,2.919,0,0,1-.172,0L182.7,33.937,189.755,0h-1.221l-6.977,33.554L145.531,21.479,167.866,0H166.1L144.22,21.039,81.448,0H78.6L29.538,47.178,19.728,0H18.507L28.52,48.156,0,75.584v1.7l43.153,41.5.008.014a.609.609,0,0,0,.077.143l12.508,60.153L.083,197.75a.744.744,0,0,0-.083,0V201.3L28.52,338.472,0,365.9v1.7l43.153,41.5c0,.006.006.009.008.014a.626.626,0,0,0,.077.143l12.508,60.152L.086,488.065a.569.569,0,0,0-.086,0v3.554L28.52,628.787,0,656.214v1.7l43.153,41.5.008.014a.6.6,0,0,0,.077.143l12.507,60.152L.083,778.381a.738.738,0,0,0-.083,0v3.553L28.52,919.1,0,946.529v1.7l43.154,41.5s.005.009.008.014a.626.626,0,0,0,.077.143l12.508,60.153L.083,1068.7a.588.588,0,0,0-.083,0v3.553l18.507,89.01h1.221L.818,1070.317l63.574,21.308,14.433,69.415-.229.221H81.45l-1.46-.489L65.7,1092.066l127.8,42.836-27.41,26.359h1.77l25.834-24.843-5.166,24.843h1.22l5.451-26.216a.656.656,0,0,0,.077-.144.139.139,0,0,0,.008-.014l43.154-41.5,43.154,41.5a.139.139,0,0,0,.008.014.654.654,0,0,0,.078.144l5.451,26.216h1.22l-5.166-24.843,25.834,24.843h1.77l-27.41-26.359,127.8-42.836L396.9,1160.772l-1.46.489h2.854l-.229-.221,14.433-69.415,63.574-21.308-18.91,90.944h1.221l18.507-89.01,18.507,89.01h1.221l-18.91-90.944,63.574,21.308,14.433,69.415-.229.221h2.853l-1.46-.489-14.285-68.706L670.4,1134.9l-27.41,26.36h1.769l25.833-24.843-5.165,24.843h1.22l5.451-26.216a.607.607,0,0,0,.078-.143c0-.005.006-.009.008-.015l43.153-41.5,43.153,41.5a.118.118,0,0,0,.008.015.609.609,0,0,0,.078.143l5.451,26.216h1.22l-5.166-24.843,25.833,24.843h1.77l-27.41-26.36,127.8-42.835-14.285,68.706-1.46.489h2.853l-.229-.221,14.432-69.414,63.574-21.309-18.909,90.944h1.22l18.508-89.013,18.508,89.013h1.22L954.6,1070.317l63.574,21.309,14.433,69.414-.229.221h2.853l-1.46-.489-14.285-68.706,127.8,42.835-27.41,26.36h1.77l25.834-24.843-5.166,24.843h1.219Zm.461-2.22,13.962-67.147,27.931,26.86ZM181.558,904.5l-36.027-12.075L193.7,846.1Zm.885,1.615,54.035,18.111-62.13,20.824Zm0-580.631,54.035,18.11-62.13,20.825Zm-.885-1.616-36.027-12.075L193.7,265.471Zm56.068,20.66L208.907,482.651l-49.288-47.4,14.433-69.415ZM411.184,221.12,396.9,289.827l-64.229,21.528-49.288-47.4ZM284.559,262.242l98.4-94.628,36.787,12.33L411.479,219.7ZM670.4,263.956l-49.288,47.4-64.229-21.528L542.594,221.12ZM542.3,219.7l-8.266-39.758,36.787-12.33,98.4,94.627Zm345.774,1.417-14.285,68.707-64.229,21.528-49.288-47.4ZM761.448,262.242l98.4-94.628,36.787,12.33L888.368,219.7Zm385.837,1.714L1098,311.354l-64.229-21.528-14.286-68.707Zm-128.1-44.254-8.267-39.758,36.787-12.33,98.4,94.628ZM1256.321,364.42,1194.19,343.6l54.034-18.111Zm-19.354-98.948,48.169,46.322-36.026,12.075Zm19.649,100.366,14.432,69.415-49.288,47.4-28.719-138.121ZM1236.967,846.1l48.169,46.322L1249.109,904.5Zm19.354,98.948-62.13-20.824,54.034-18.112ZM238.444,512.758l43.153,41.5c0,.006.006.009.008.015a.607.607,0,0,0,.078.143l12.507,60.152-55.661,18.656a1.894,1.894,0,0,1-.169,0L182.7,614.567l12.507-60.152a.607.607,0,0,0,.077-.143c0-.006.007-.009.008-.015Zm-42.777,39.436,13.962-67.147,27.931,26.861Zm236.284-143.08-49.288,47.4-64.229-21.528-14.286-68.707Zm-128.1-44.254L295.588,325.1l36.787-12.33,98.4,94.627Zm-1.312,289.876-62.13-20.825L294.447,615.8Zm-19.353-98.948,48.169,46.322-36.026,12.075Zm12.4,59.631,36.787-12.33,98.4,94.628-126.92-42.54Zm-12.206-61.147,127.8-42.836L396.9,580.142l-64.229,21.528Zm1.177-1.713,98.4-94.628,36.787,12.33-8.267,39.757ZM412.5,511l63.573-21.308L447.351,627.809l-49.288-47.4Zm.3-1.418,8.1-38.935,54.034,18.111ZM420,469.027l-36.027-12.075,48.169-46.322Zm-38.356-11.536-99.084,95.285-14.286-68.707,49.8-47.887Zm-100.425,94.7-41.892-40.286,27.931-26.861Zm21.616,103.96,14.433,69.414-49.288,47.4L239.264,634.845Zm1.312.439,127.8,42.836-49.288,47.4L318.435,725.3Zm78.81,91.652,36.787,12.33-8.267,39.757L284.56,842.873Zm37.928,12.713,54.034,18.11-62.13,20.824ZM420,759.342l-36.026-12.074,48.168-46.322ZM333.687,602.648,397.26,581.34l49.8,47.887-14.286,68.706ZM448.074,630.2,476,657.065l-41.892,40.286Zm.3-1.418,28.52-137.167L505.41,628.786l-28.521,27.427Zm201.26-262.51-14.286,68.707-64.229,21.528-49.288-47.4ZM523,407.4l98.4-94.627L658.19,325.1l-8.267,39.758ZM671.215,552.776l-99.084-95.285,63.575-21.309L685.5,484.069Zm15.3-67.729,27.931,26.861-41.893,40.287ZM670.4,554.271l-49.288,47.4-64.229-21.528-14.286-68.706ZM542.3,510.017l-8.266-39.757,36.787-12.33,98.4,94.627Zm79.105,93.07,36.787,12.33-8.267,39.757L523,697.715ZM659.331,615.8l54.034,18.111-62.13,20.825Zm-.885-1.615-36.026-12.075,48.168-46.322ZM569.8,456.952l-36.026,12.075-12.143-58.4Zm-28.815,52.625-62.13-20.824,54.034-18.111Zm.294,1.418,14.433,69.415-49.288,47.4L477.707,489.687ZM505.7,630.2l13.962,67.147-41.892-40.286Zm1.017-.977,49.8-47.887,63.573,21.309-99.084,95.285Zm34.266,170.666-62.13-20.824,54.034-18.11Zm-19.354-98.948L569.8,747.268l-36.026,12.074Zm12.4,59.63,36.787-12.33,98.4,94.628L542.3,800.332Zm-12.206-61.147,127.8-42.836L635.342,725.3l-64.229,21.528ZM650.94,656.153l63.574-21.309L685.8,772.966l-49.288-47.4Zm8.647-41.587,12.508-60.151a.637.637,0,0,0,.078-.144.123.123,0,0,1,.008-.015l43.153-41.5,43.152,41.5a.123.123,0,0,1,.008.015.637.637,0,0,0,.078.144l12.508,60.151-55.662,18.657a.534.534,0,0,0-.073,0,.586.586,0,0,0-.1,0ZM908.841,409.114l-49.288,47.4-64.229-21.528-14.286-68.707Zm-128.1-44.254L772.477,325.1l36.787-12.33,98.4,94.627Zm-1.311,289.876L717.3,633.911,771.336,615.8Zm-19.354-98.948,48.169,46.322L772.22,614.184Zm12.4,59.63,36.787-12.33,98.4,94.628-126.92-42.54Zm-12.206-61.147,127.8-42.836-14.285,68.706-64.229,21.528Zm1.177-1.714,98.4-94.627,36.787,12.33-8.267,39.757ZM889.385,511l63.574-21.308L924.24,627.809l-49.288-47.4Zm.3-1.418,8.1-38.935,54.035,18.111Zm7.211-40.55-36.026-12.075,48.169-46.322Zm-38.355-11.536-99.084,95.285-14.286-68.707,49.795-47.887Zm-100.425,94.7-41.893-40.287,27.931-26.861Zm21.615,103.959,14.433,69.413-49.288,47.4L716.153,634.845Zm1.312.439,127.8,42.836-49.288,47.4L795.324,725.3Zm78.81,91.652,36.787,12.33-8.267,39.757-126.919,42.54Zm37.928,12.713,54.035,18.11-62.13,20.824Zm-.885-1.616-36.026-12.074,48.169-46.322ZM810.575,602.648l63.574-21.309,49.8,47.887-14.286,68.706ZM924.962,630.2l27.931,26.86L911,697.351Zm.3-1.418,28.521-137.169L982.3,628.786l-28.521,27.427Zm201.26-262.509-14.285,68.707L1048,456.512l-49.288-47.4ZM999.892,407.4l98.4-94.627,36.787,12.33-8.267,39.758Zm235.482,146.857a.1.1,0,0,1,.008.015.646.646,0,0,0,.078.144l12.508,60.151-55.663,18.657a.518.518,0,0,0-.072,0,.593.593,0,0,0-.1,0l-55.66-18.655,12.508-60.151a.642.642,0,0,0,.078-.144.115.115,0,0,1,.008-.015l43.153-41.5Zm-42.268-42.349,27.931-26.861L1235,552.194Zm-45.822,42.364L1098,601.669l-64.229-21.528-14.286-68.706Zm-128.1-44.254-8.267-39.757,36.787-12.33,98.4,94.627Zm116.147,104.167-36.026-12.075,48.169-46.322Zm.885,1.615,54.034,18.111-62.13,20.825Zm-37.928-12.712,36.787,12.33-8.267,39.757-126.919,42.54Zm28.225,53.505L1112.232,725.3,1048,746.827l-49.288-47.4Zm1.313-.439,63.573-21.309-28.719,138.121-49.288-47.4Zm21.615-103.959,13.962-67.147,27.931,26.861Zm-1.341.581-99.084-95.285,63.575-21.309,49.8,47.887Zm-101.413-95.824-36.026,12.075-12.143-58.4Zm-28.815,52.625-62.13-20.824,54.034-18.111Zm.295,1.418L1032.6,580.41l-49.288,47.4L954.6,489.687ZM982.594,630.2l13.962,67.147-41.893-40.286Zm1.016-.977,49.8-47.887,63.574,21.309L997.9,697.933Zm63.08,118.041-36.026,12.074-12.143-58.4Zm-28.815,52.625-62.13-20.824,54.034-18.11Zm-6.955-39.318,36.787-12.33,98.4,94.628-126.919-42.54Zm38.1-12.77,63.574-21.308,49.8,47.886L1148.1,843.091Zm114.387,27.557,27.931,26.86-41.893,40.286Zm.3-1.419,28.521-137.17,28.521,137.17-28.521,27.427Zm57.337,1.419L1235,842.509l-41.893-40.286Zm1.016-.979,49.8-47.886,63.574,21.308-99.084,95.286Zm-.294-1.418-28.719-138.121,63.574,21.309,14.432,69.413Zm-27.57-139.055,54.034-18.111,8.1,38.936Zm42.776-78.123,48.169,46.322-36.026,12.075Zm-.625-3.012-14.286-68.707,49.8-47.887,63.575,21.309Zm-15.6-69.147-28.521,27.427L1163.7,483.629l28.521-137.169Zm-58.059-.978-49.288-47.4,14.433-69.415,63.573-21.308Zm-34.56-118.231,8.1-38.936,54.034,18.111Zm7.211-40.551-36.026-12.075,48.169-46.322Zm-38.355-11.536L997.9,407.618,983.61,338.911l49.8-47.887Zm-100.425,94.7L954.662,366.75l27.931-26.861Zm.375,2.062c0,.006.006.01.008.016a.648.648,0,0,0,.078.143l12.508,60.152-55.659,18.655a.582.582,0,0,0-.088,0,.573.573,0,0,0-.087,0l-55.66-18.655,12.508-60.152a.648.648,0,0,0,.078-.143c0-.006.006-.01.008-.016l43.153-41.5ZM911,407.037l13.962-67.148,27.931,26.861Zm-1.341.581-99.084-95.285,63.574-21.308,49.8,47.887ZM808.246,311.794,772.22,323.869l-12.143-58.4ZM779.431,364.42,717.3,343.6l54.034-18.111Zm.294,1.418,14.433,69.415-49.288,47.4L716.153,344.529ZM743.854,483.629l-28.521,27.427-28.521-27.427L715.333,346.46Zm-58.059-.978-49.288-47.4,14.432-69.415,63.574-21.308ZM651.235,364.42l8.1-38.936L713.366,343.6Zm7.211-40.551-36.026-12.075,48.168-46.322Zm-38.355-11.536-99.084,95.286-14.286-68.707,49.8-47.887Zm-100.425,94.7L477.774,366.75,505.7,339.889Zm.376,2.063a.11.11,0,0,0,.008.014.606.606,0,0,0,.077.143l12.507,60.152-55.66,18.655a2.021,2.021,0,0,1-.173,0l-55.659-18.655,12.508-60.152a.65.65,0,0,0,.077-.143c0-.005.006-.009.008-.014l43.153-41.5Zm-85.93-2.063,13.962-67.147L476,366.75Zm-1.341.582-99.084-95.286,63.574-21.308,49.8,47.887ZM331.358,311.794l-36.027,12.075-12.143-58.4ZM302.542,364.42,240.412,343.6l54.035-18.11Zm.3,1.418,14.433,69.415-49.288,47.4L239.264,344.529ZM266.965,483.629l-28.52,27.427-28.52-27.427,28.52-137.167Zm-58.353.439-14.286,68.707L95.242,457.491l63.574-21.309ZM181.558,614.184l-36.026-12.075L193.7,555.787Zm.885,1.615,54.035,18.111-62.13,20.825Zm55.183,19.045L208.907,772.966l-49.288-47.4,14.433-69.414Zm-29.013,139.54-14.286,68.707L95.242,747.805,158.816,726.5Zm1.017.978,27.931,26.86-41.892,40.286Zm.3-1.418,28.52-137.167,28.52,137.167-28.52,27.427Zm57.336,1.418,13.962,67.145-41.892-40.286Zm1.017-.978,49.8-47.887,63.573,21.308-99.084,95.286ZM302.542,945.05l-62.13-20.824,54.035-18.111ZM283.189,846.1l48.169,46.322L295.331,904.5Zm12.4,59.631,36.787-12.33,98.4,94.626L303.854,945.49Zm-12.205-61.147,127.8-42.836L396.9,870.458,332.67,891.985ZM412.5,801.311,476.07,780,447.352,918.124l-49.288-47.4Zm8.647-41.586,12.507-60.152a.629.629,0,0,0,.077-.143l.008-.014,43.153-41.5,43.153,41.5c0,.005.006.009.008.014a.657.657,0,0,0,.077.144l12.507,60.152-55.663,18.656c-.027,0-.055,0-.083,0s-.055,0-.083,0Zm120.138,41.586,14.433,69.415-49.288,47.4L477.707,780Zm1.312.439,127.8,42.836-49.288,47.4-64.229-21.527ZM621.4,893.4l36.787,12.33-8.267,39.758L523,988.029Zm37.928,12.712,54.034,18.112-62.13,20.824Zm-.885-1.615-36.026-12.075L670.589,846.1ZM572.131,747.805,635.7,726.5l49.8,47.886-14.286,68.708Zm114.387,27.557,27.931,26.86-41.893,40.286Zm.3-1.419,28.521-137.17,28.521,137.17-28.521,27.427Zm57.337,1.419,13.962,67.146-41.893-40.286Zm1.016-.979,49.8-47.886,63.574,21.308-99.084,95.286ZM779.431,945.05,717.3,924.227l54.034-18.112ZM760.078,846.1l48.169,46.322L772.22,904.5Zm12.4,59.631,36.787-12.33,98.4,94.626-126.92-42.54Zm-12.205-61.147,127.8-42.836-14.285,68.708-64.229,21.527Zm129.114-43.276L952.959,780,924.24,918.124l-49.288-47.4Zm8.647-41.586,12.508-60.152a.621.621,0,0,0,.077-.143c0-.006.007-.011.009-.016l43.152-41.5,43.153,41.5c0,.005.007.01.009.016a.624.624,0,0,0,.078.143l12.508,60.152-55.662,18.656a.618.618,0,0,0-.076,0,.53.53,0,0,0-.094,0Zm120.14,41.586,14.433,69.415-49.288,47.4L954.6,780Zm1.312.439,127.8,42.836L1098,891.985l-64.229-21.527Zm128,44.352-12.143,58.4-36.026-12.075Zm-49.186,47.3,36.787,12.33-8.267,39.757-126.919,42.54Zm37.928,12.712,54.034,18.112-62.13,20.824Zm.256-1.233,12.508-60.15a.629.629,0,0,0,.078-.143c0-.006.007-.011.009-.017l43.153-41.5,43.152,41.5c0,.006.007.011.009.017a.634.634,0,0,0,.077.143l12.508,60.15-55.661,18.657a.485.485,0,0,0-.085,0,.564.564,0,0,0-.085,0Zm120.14,41.586,14.432,69.415-49.288,47.4L1193.041,925.16Zm1.311.441,127.8,42.835-49.288,47.4-64.229-21.528Zm-.294-1.419-8.267-39.757,36.787-12.33,98.4,94.626Zm-20.472-100.9,127.8-42.836-14.285,68.708-64.229,21.527Zm1.177-1.714,98.4-94.628,36.787,12.33-8.267,39.757Zm98.1-96.046L1272.213,725.3l-14.286-68.706,127.8,42.836Zm-78.809-91.652-8.267-39.757,36.787-12.33,98.4,94.628Zm-20.473-100.9,127.8-42.836-14.285,68.706-64.229,21.528Zm1.177-1.714,98.4-94.627,36.787,12.33-8.267,39.757Zm98.1-96.045-64.229-21.528-14.286-68.707,127.8,42.836Zm-78.809-91.652-8.267-39.758,36.787-12.33,98.4,94.627Zm-20.473-100.9,127.8-42.836-14.285,68.707-64.229,21.528Zm1.177-1.714,98.4-94.628,36.787,12.33-8.267,39.758Zm98.1-96.045-64.229-21.528-14.286-68.707,127.8,42.836Zm-1.017.978-99.084,95.285-14.286-68.707,49.8-47.886ZM1235,261.879l-41.893-40.287,27.931-26.86Zm.375,2.062c0,.006.006.011.008.016a.658.658,0,0,0,.078.143l12.508,60.152-55.659,18.655a2.014,2.014,0,0,1-.175,0l-55.66-18.655,12.508-60.152a.653.653,0,0,0,.078-.143c0-.006.007-.011.008-.016l43.153-41.5Zm-85.93-2.062,13.962-67.147,27.931,26.86Zm-1.341.581-99.084-95.285,63.575-21.308,49.8,47.886Zm-35.872-117.791L1048,166.2l-49.288-47.4,127.8-42.836Zm-65.541,21.967-36.026,12.075-12.143-58.4Zm-28.815,52.626-62.13-20.825,54.034-18.11Zm.295,1.418,14.433,69.415-49.288,47.4L954.6,199.372ZM982.3,338.471,953.778,365.9l-28.521-27.427L953.778,201.3Zm-58.059-.978-49.288-47.4,14.432-69.415,63.574-21.308ZM889.68,219.262l8.1-38.935,54.035,18.11Zm7.211-40.551-36.026-12.075,48.169-46.322ZM859.553,166.2l-64.229-21.528L781.038,75.962l127.8,42.836Zm-1.017.978L759.452,262.46l-14.286-68.707,49.795-47.886Zm-100.425,94.7-41.893-40.287,27.932-26.86Zm.375,2.062c0,.006.006.011.008.016a.648.648,0,0,0,.078.143l12.508,60.152-55.659,18.655a.582.582,0,0,0-.088,0,.589.589,0,0,0-.088,0l-55.658-18.655L672.094,264.1a.648.648,0,0,0,.078-.143c0-.006.007-.011.008-.016l43.153-41.5Zm-85.93-2.062,13.962-67.147,27.932,26.86Zm-1.341.581-99.084-95.285,63.575-21.308L685.5,193.753ZM635.342,144.669,571.114,166.2l-49.288-47.4,127.8-42.836ZM569.8,166.636l-36.026,12.075-12.143-58.4Zm-28.815,52.626-62.13-20.825,54.034-18.11Zm.294,1.418,14.433,69.415-49.288,47.4L477.707,199.372ZM505.409,338.472,476.889,365.9l-28.52-27.427L476.889,201.3Zm-58.058-.979-49.288-47.4L412.5,220.68l63.573-21.308Zm-34.56-118.231,8.1-38.935,54.034,18.11ZM420,178.711l-36.027-12.075,48.169-46.322ZM382.664,166.2l-64.229-21.528L304.149,75.962l127.8,42.836Zm-1.018.978-99.084,95.286-14.286-68.707,49.8-47.886Zm-100.425,94.7-41.892-40.286,27.931-26.86Zm.376,2.063a.125.125,0,0,0,.008.015.626.626,0,0,0,.077.143l12.508,60.152-55.66,18.655a2.007,2.007,0,0,1-.173,0L182.7,324.252,195.206,264.1a.626.626,0,0,0,.077-.143.121.121,0,0,0,.008-.015l43.153-41.5Zm-85.93-2.063,13.962-67.146,27.931,26.86Zm-1.341.583L95.242,167.175l63.574-21.308,49.8,47.886ZM158.454,144.669,94.225,166.2,44.937,118.8l127.8-42.836ZM192.33,262.242,65.409,219.7l-8.266-39.758,36.787-12.33Zm1.177,1.714-49.288,47.4L79.99,289.827,65.7,221.12Zm-48.993,48.816L181.3,325.1l-8.266,39.758L46.115,407.4Zm28.226,53.5-14.286,68.707L94.225,456.512l-49.288-47.4Zm19.59,186.28-126.92-42.54L57.143,470.26,93.93,457.93Zm1.177,1.713-49.288,47.4L79.99,580.142,65.7,511.435Zm-48.993,48.816,36.787,12.33-8.266,39.757-126.92,42.54Zm28.225,53.505L158.454,725.3,94.225,746.827l-49.288-47.4Zm19.589,186.28-126.92-42.54-8.266-39.757,36.787-12.33Zm1.177,1.714-49.288,47.4L79.99,870.458,65.7,801.75ZM144.514,893.4l36.787,12.33-8.266,39.757L46.115,988.029Zm28.226,53.505-14.286,68.706-64.229,21.528-49.288-47.4Zm1.312-.441,63.574-21.308-28.719,138.121-49.288-47.4Zm8.647-41.586,12.507-60.152a.611.611,0,0,0,.077-.143c0-.006.007-.01.009-.016l43.152-41.5,43.152,41.5c0,.006.007.01.009.016a.61.61,0,0,0,.078.143l12.507,60.152-55.664,18.657a2.52,2.52,0,0,1-.165,0Zm120.138,41.586,14.433,69.415-49.288,47.4L239.263,925.16Zm1.312.441,127.8,42.835-49.288,47.4-64.229-21.528Zm128,44.352L420,1049.657l-36.026-12.075Zm-98.457-98.3,63.573-21.308,49.8,47.887-14.286,68.706ZM448.074,920.52,476,947.38l-41.892,40.286Zm.3-1.418,28.52-137.167L505.409,919.1l-28.52,27.428ZM505.7,920.52l13.962,67.146L477.774,947.38Zm1.017-.977,49.8-47.887,63.573,21.308-99.084,95.285Zm15.1,70.2,127.8-42.835-14.286,68.706-64.228,21.528Zm47.976,47.838-36.026,12.075-12.143-58.4Zm81.139-91.114,63.574-21.308L685.8,1063.281l-49.288-47.4Zm8.647-41.586,12.508-60.15a.625.625,0,0,0,.078-.143c0-.006.007-.011.009-.017l43.153-41.5,43.152,41.5c0,.006.007.011.009.017a.627.627,0,0,0,.078.143l12.508,60.15-55.661,18.657a.493.493,0,0,0-.086,0,.562.562,0,0,0-.085,0Zm120.139,41.586,14.433,69.415-49.288,47.4L716.153,925.16Zm1.312.441,127.8,42.835-49.288,47.4-64.229-21.528Zm128,44.352-12.143,58.4-36.026-12.075Zm-98.458-98.3,63.574-21.308,49.8,47.887L909.66,988.248ZM924.962,920.52l27.931,26.86L911,987.666Zm.3-1.419,28.521-137.169L982.3,919.1l-28.521,27.428Zm57.337,1.419,13.962,67.146L954.662,947.38Zm1.016-.977,49.8-47.887,63.573,21.308L997.9,988.248Zm15.1,70.2,127.8-42.835-14.286,68.706L1048,1037.142Zm47.976,47.838-36.026,12.075-12.143-58.4Zm81.139-91.114L1191.4,925.16l-28.719,138.121-49.288-47.4ZM1163.7,1064.26l28.521-137.17,28.521,137.17-28.521,27.427Zm29.406,28.278,27.931-26.86L1235,1132.825Zm43.234,40.868-14.286-68.707,49.8-47.887,63.573,21.308Zm128.916-42.758-126.919,42.54,98.4-94.627,36.787,12.33Zm63.442-21.264-62.13,20.824,8.1-38.935Zm-54.919-19.727-36.026-12.075,48.169-46.322Zm12.769-61.409-99.084-95.285,63.573-21.308,49.8,47.887Zm43.234-40.868-41.893,40.286,13.961-67.146Zm-28.653-29.256-49.288-47.4,14.433-69.415L1429.848,780Zm27.57-139.055-62.13,20.824,8.1-38.935Zm-54.919-19.727-36.026-12.074,48.169-46.322Zm12.768-61.409-99.084-95.285,63.574-21.309,49.8,47.887Zm43.234-40.868-41.893,40.286,13.961-67.147Zm-28.653-29.256-49.288-47.4L1366.274,511l63.573-21.308Zm27.57-139.055-62.13,20.824,8.1-38.935Zm-54.919-19.726-36.026-12.075,48.169-46.322Zm12.768-61.409-99.084-95.285,63.574-21.308,49.8,47.887Zm43.234-40.868-41.893,40.287,13.961-67.148Zm-28.653-29.257-49.288-47.4,14.433-69.415,63.573-21.308Zm27.57-139.056-62.13,20.825,8.1-38.935Zm-54.919-19.726-36.026-12.075,48.169-46.322Zm28.071-129.138,27.932,26.86-41.893,40.287ZM1351.038.709l49.8,47.887L1386.548,117.3l-99.084-95.285Zm-64.885,21.748,98.4,94.627-126.92-42.54-8.267-39.757Zm-37.928,12.712,8.1,38.935L1194.19,53.28Zm8.391,40.353,14.432,69.415-49.288,47.4L1193.041,54.214Zm-64.393-19.378,28.521,137.169-28.521,27.427L1163.7,193.314Zm-29.538,136.191-49.288-47.4,14.433-69.415L1191.4,54.214ZM1136.22,35.169l54.034,18.111L1128.124,74.1Zm-37.928-12.712,36.787,12.33-8.267,39.757-126.92,42.54ZM1033.406.709l63.574,21.308L997.9,117.3,983.611,48.6ZM982.594,49.574l13.962,67.147L954.662,76.434Zm14.337,69.21c0,.006.006.01.008.015a.639.639,0,0,0,.078.144l12.508,60.152-55.66,18.655a.554.554,0,0,0-.085,0,.516.516,0,0,0-.088,0l-55.66-18.655,12.508-60.152a.639.639,0,0,0,.078-.144c0-.005.006-.009.008-.015l43.153-41.5Zm-71.969-69.21,27.931,26.86L911,116.721ZM874.149.709l49.8,47.887L909.659,117.3,810.575,22.017ZM809.264,22.457l98.4,94.627-126.92-42.54-8.266-39.757ZM771.336,35.169l8.1,38.935L717.3,53.28Zm8.39,40.353,14.433,69.415-49.288,47.4L716.153,54.214ZM715.333,56.145l28.521,137.169-28.521,27.427-28.521-27.427ZM685.8,192.336l-49.288-47.4L650.94,75.523l63.574-21.308ZM659.331,35.169,713.366,53.28,651.235,74.1ZM621.4,22.457l36.787,12.33-8.267,39.757L523,117.085ZM556.518.709l63.573,21.308L521.007,117.3,506.721,48.6ZM505.7,49.574l13.962,67.147L477.774,76.434Zm14.338,69.21c0,.005.006.009.008.014a.606.606,0,0,0,.077.143l12.507,60.152L476.972,197.75a2.785,2.785,0,0,1-.167,0l-55.662-18.656,12.508-60.153a.632.632,0,0,0,.077-.143l.008-.014,43.153-41.5Zm-71.968-69.21L476,76.434l-41.892,40.286ZM397.26.709l49.8,47.887L432.771,117.3,333.686,22.017ZM332.375,22.457l98.4,94.628-126.92-42.54-8.266-39.757ZM294.447,35.17l8.1,38.934L240.412,53.28Zm8.39,40.352,14.433,69.415-49.288,47.4L239.264,54.214ZM238.444,56.147l28.52,137.167-28.52,27.427-28.52-27.427ZM208.907,192.336l-49.288-47.4,14.433-69.415,63.573-21.308ZM182.442,35.17l54.035,18.11L174.347,74.1ZM144.514,22.457,181.3,34.787l-8.266,39.757-126.92,42.54ZM.885,76.434l27.931-26.86,13.962,67.146ZM29.832,48.6,79.629.709,143.2,22.017,44.118,117.3Zm14.912,71.719,48.169,46.322L56.887,178.711ZM56,180.327l8.1,38.935L1.968,198.438ZM.818,199.372,64.393,220.68l14.433,69.415-49.288,47.4ZM.885,366.75l27.931-26.861,13.962,67.147Zm28.948-27.839,49.8-47.887L143.2,312.332,44.118,407.618ZM44.744,410.63l48.169,46.322L56.887,469.027ZM56,470.642l8.1,38.935L1.968,488.753ZM.818,489.687,64.393,511l14.433,69.415-49.288,47.4ZM.885,657.065,28.815,630.2l13.962,67.146Zm28.948-27.838,49.8-47.887L143.2,602.648,44.118,697.933Zm14.912,71.718,48.169,46.322L56.887,759.342ZM56,760.958l8.1,38.935L1.968,779.068ZM.818,780l63.574,21.308,14.433,69.415-49.288,47.4ZM.885,947.38l27.931-26.86,13.962,67.146Zm28.948-27.838,49.8-47.887L143.2,892.963,44.118,988.248ZM44.744,991.26l48.169,46.322-36.027,12.075ZM1.968,1069.384,56,1051.274l8.1,38.934Zm63.442,21.264-8.266-39.757,36.787-12.33,98.4,94.627Zm128.917,42.758-99.084-95.285,63.573-21.308,49.8,47.887Zm1.341-.582,13.962-67.146,27.931,26.86Zm14.256-68.564,28.521-137.167,28.521,137.167-28.521,27.427Zm29.406,28.278,27.931-26.86,13.962,67.146Zm43.234,40.868L268.277,1064.7l49.8-47.887,63.573,21.308Zm128.916-42.758-126.919,42.54,98.4-94.627,36.787,12.33Zm1.313-.44,8.1-38.935,54.034,18.111Zm64.18-21.511a3.125,3.125,0,0,1-.166,0l-55.663-18.656,12.508-60.153a.651.651,0,0,0,.077-.143c0-.005.006-.009.008-.014l43.154-41.5,43.154,41.5s.005.009.008.014a.606.606,0,0,0,.077.143l12.507,60.153Zm1.885.688,54.034-18.111,8.1,38.935Zm63.442,21.264-8.266-39.757,36.787-12.33,98.4,94.627Zm128.916,42.758-99.083-95.285,63.573-21.308,49.8,47.887Zm1.341-.581,13.962-67.147,27.931,26.86Zm14.257-68.565,28.521-137.17,28.521,137.17-28.521,27.427Zm29.406,28.278,27.931-26.86,13.962,67.147Zm43.234,40.868L745.166,1064.7l49.8-47.887,63.573,21.308Zm128.916-42.758-126.919,42.54,98.4-94.627,36.787,12.33Zm1.312-.44,8.1-38.935,54.035,18.111Zm64.183-21.512a.587.587,0,0,0-.092,0,.492.492,0,0,0-.076,0l-55.663-18.657,12.508-60.152a.64.64,0,0,0,.078-.144.092.092,0,0,1,.008-.014l43.153-41.5,43.153,41.5a.1.1,0,0,1,.008.014.64.64,0,0,0,.078.144l12.508,60.152Zm1.883.688,54.034-18.111,8.1,38.935Zm63.442,21.264-8.267-39.757,36.787-12.33,98.4,94.627Zm29.832-52.527,63.574-21.308,49.8,47.887-14.286,68.707Z" fill="#b3b3b3"/>
    </g>
  </g>
</svg>
