<svg id="apricotlaw-logo-white" xmlns="http://www.w3.org/2000/svg" width="167.6" height="25.997" viewBox="0 0 167.6 25.997">
  <g id="XMLID_2_">
    <path id="XMLID_42_" d="M17.158,26.2a3.714,3.714,0,0,1-.284-.569.5.5,0,0,1,.244-.691c.284-.122.447,0,.569.244a2.735,2.735,0,0,0,1.787,1.422c.447.122.934.244,1.381.366.406.122.772.284,1.219.406a1.113,1.113,0,0,0-.081-1.219,3.687,3.687,0,0,1-.487-2.275c.041-.325.2-.528.528-.528.366,0,.447.284.406.569a3.161,3.161,0,0,0,.691,2.275,4.055,4.055,0,0,0,1.422-2.437.418.418,0,0,1,.528-.447c.325.041.406.244.406.528a3.183,3.183,0,0,1-.731,1.787c-.406.528-.853,1.016-1.3,1.544a3.063,3.063,0,0,0-.528,2.722,8.189,8.189,0,0,0,.447-1.137,6.706,6.706,0,0,1,3.047-3.778,2.35,2.35,0,0,0,1.259-1.828.4.4,0,0,1,.487-.366c.284.041.447.2.406.487a12,12,0,0,1-.284,1.381c.447-.325.894-.569,1.3-.853.366-.284.569-.325.812-.041a.461.461,0,0,1-.162.731,15.594,15.594,0,0,1-1.584.894c-.487.244-.975.366-1.462.569a4.345,4.345,0,0,0-2.478,2.315c-.284.691-.528,1.381-.853,2.153.731-.366,1.422-.691,2.031-1.056.162-.081.244-.366.284-.569a6.582,6.582,0,0,1,.041-.894,5.269,5.269,0,0,1,.569-1.3.4.4,0,0,1,.65-.081.44.44,0,0,1,.041.691,2.043,2.043,0,0,0-.366,1.462,2.489,2.489,0,0,0,1.056-1.3c.122-.325.284-.528.65-.406q.427.122.244.731A3.515,3.515,0,0,1,27.6,29.493c-.569.366-1.178.65-1.787.975-.284.162-.569.284-.812.447a5.944,5.944,0,0,0,2.4-.162,1.675,1.675,0,0,0,.528-.406c.2-.244.406-.406.691-.2.284.162.284.406.081.772a2.488,2.488,0,0,1-.162.244c.528.406,1.016.812,1.544,1.219.2.162.325.325.2.569a.449.449,0,0,1-.65.244,5.547,5.547,0,0,1-.853-.609c-.2-.162-.406-.406-.609-.569a1.947,1.947,0,0,0-.812-.284c-.487,0-.975.081-1.544.122a3.325,3.325,0,0,0,1.422,1.178c.447.162.569.325.447.65a.468.468,0,0,1-.731.244,10.009,10.009,0,0,1-1.381-.894c-.325-.244-.65-.569-.975-.812a.7.7,0,0,0-.569.041,1.453,1.453,0,0,0-.65,1.259c.081,1.828.162,3.656.2,5.484v.528H21.423V38.267c.041-1.462.081-2.925.162-4.387a1.391,1.391,0,0,0-.731-1.422,5.77,5.77,0,0,0-2.965-.65,1.475,1.475,0,0,0-.691.284,3.223,3.223,0,0,1-1.95.325c-.284-.041-.528-.162-.487-.528.041-.325.284-.406.569-.406.406,0,.812-.041,1.219-.081v-.122c-.325-.2-.691-.406-1.016-.65-.2-.122-.406-.325-.2-.609a.455.455,0,0,1,.691-.162,7.267,7.267,0,0,0,3.006,1.1,5.981,5.981,0,0,1,2.884,1.178,7.488,7.488,0,0,0,0-2.518c0-.081-.284-.244-.366-.244a7.428,7.428,0,0,0-1.016.325,5.09,5.09,0,0,1-4.346-.284.449.449,0,0,1-.244-.65c.122-.284.366-.325.65-.2.041.041.122.041.162.081,0-.041.041-.041.041-.081-.244-.122-.487-.284-.731-.406-.447-.2-.894-.325-1.3-.528a2.473,2.473,0,0,1-.609-.487.4.4,0,0,1-.081-.569c.2-.2.447-.284.65-.081a3.469,3.469,0,0,0,1.5.731,3.531,3.531,0,0,1,1.787,1.259,1.487,1.487,0,0,0,1.909.487c.569-.2,1.178-.366,1.869-.609a4.929,4.929,0,0,0-.569-.406,12.153,12.153,0,0,0-1.3-.325c-.447-.122-.853-.284-1.3-.406a8.8,8.8,0,0,0-1.016-.162c-.284-.041-.609-.041-.894-.081A1.749,1.749,0,0,1,15,25.431a3.4,3.4,0,0,0-.569-1.625c-.081-.081,0-.447.162-.528a.692.692,0,0,1,.569,0,2.837,2.837,0,0,1,.528.975,8.549,8.549,0,0,1,.244.975C16.1,26.081,16.427,26.284,17.158,26.2Z" transform="translate(-8.302 -13.529)" fill="#fff"/>
    <path id="XMLID_41_" d="M44.234,12.8a.976.976,0,1,1-.934.975A.907.907,0,0,1,44.234,12.8Z" transform="translate(-25.711 -7.601)" fill="#fff"/>
    <path id="XMLID_40_" d="M43.469,6.516a.886.886,0,0,1-.975.934.9.9,0,0,1-.894-.975.936.936,0,1,1,1.869.041Z" transform="translate(-24.702 -3.266)" fill="#fff"/>
    <path id="XMLID_39_" d="M30.269,12.075a.907.907,0,0,1-.934.975.919.919,0,0,1-.934-.934.94.94,0,0,1,.934-1.016A.929.929,0,0,1,30.269,12.075Z" transform="translate(-16.864 -6.591)" fill="#fff"/>
    <path id="XMLID_38_" d="M56.534,48.15a.965.965,0,0,1-.934-1.016.9.9,0,0,1,.934-.934.929.929,0,0,1,.934.975A.886.886,0,0,1,56.534,48.15Z" transform="translate(-33.015 -27.433)" fill="#fff"/>
    <path id="XMLID_37_" d="M12.769,37.775a.929.929,0,0,1-.934.975.919.919,0,0,1-.934-1.016.874.874,0,0,1,.934-.934A.929.929,0,0,1,12.769,37.775Z" transform="translate(-6.472 -21.852)" fill="#fff"/>
    <path id="XMLID_36_" d="M17.569,5.116a.886.886,0,0,1-.975.934.9.9,0,0,1-.894-.975.929.929,0,0,1,.934-.975A.94.94,0,0,1,17.569,5.116Z" transform="translate(-9.323 -2.435)" fill="#fff"/>
    <path id="XMLID_35_" d="M51.264,10.816a.886.886,0,0,1-.975.934.87.87,0,0,1-.894-1.016A.9.9,0,0,1,50.33,9.8,1.018,1.018,0,0,1,51.264,10.816Z" transform="translate(-29.329 -5.819)" fill="#fff"/>
    <path id="XMLID_34_" d="M20.934,12.546A.941.941,0,0,1,20,11.53a.886.886,0,0,1,.975-.934.9.9,0,0,1,.894.975A.929.929,0,0,1,20.934,12.546Z" transform="translate(-11.876 -6.29)" fill="#fff"/>
    <path id="XMLID_33_" d="M36.769,11.63a.935.935,0,1,1-1.869,0,.9.9,0,0,1,.934-.934A.855.855,0,0,1,36.769,11.63Z" transform="translate(-20.723 -6.35)" fill="#fff"/>
    <path id="XMLID_32_" d="M12.034,12.75a.907.907,0,0,1-.934-.975.939.939,0,0,1,.975-.975.9.9,0,0,1,.894.975A.886.886,0,0,1,12.034,12.75Z" transform="translate(-6.591 -6.413)" fill="#fff"/>
    <path id="XMLID_31_" d="M5.734,14.5a.929.929,0,0,1,.934.975.9.9,0,0,1-.894.975.907.907,0,0,1-.975-.934A.941.941,0,0,1,5.734,14.5Z" transform="translate(-2.85 -8.61)" fill="#fff"/>
    <path id="XMLID_30_" d="M61.269,40.216a.905.905,0,0,1-.975.934.921.921,0,0,1-.894-.975.936.936,0,1,1,1.869.041Z" transform="translate(-35.271 -23.277)" fill="#fff"/>
    <path id="XMLID_29_" d="M57.434,20.95a.907.907,0,0,1-.934-.975A.954.954,0,0,1,57.434,19a.976.976,0,0,1,0,1.95Z" transform="translate(-33.549 -11.282)" fill="#fff"/>
    <path id="XMLID_28_" d="M56.934,28.65A.919.919,0,0,1,56,27.634a.9.9,0,0,1,.934-.934.907.907,0,0,1,.934.975A.886.886,0,0,1,56.934,28.65Z" transform="translate(-33.253 -15.854)" fill="#fff"/>
    <path id="XMLID_27_" d="M.975,29.6a.975.975,0,0,1-.041,1.95A.975.975,0,0,1,.975,29.6Z" transform="translate(0 -17.576)" fill="#fff"/>
    <path id="XMLID_26_" d="M33.5,4.134A.9.9,0,0,1,34.43,3.2a.954.954,0,0,1,.934.975.886.886,0,0,1-.975.934A.856.856,0,0,1,33.5,4.134Z" transform="translate(-19.888 -1.9)" fill="#fff"/>
    <path id="XMLID_25_" d="M25.469,17.134a.963.963,0,0,1-.934,1.016.977.977,0,0,1-.041-1.95A.907.907,0,0,1,25.469,17.134Z" transform="translate(-14.014 -9.619)" fill="#fff"/>
    <path id="XMLID_24_" d="M50.475,17.4a.907.907,0,0,1,.934.975.939.939,0,0,1-.975.975.975.975,0,0,1,.041-1.95Z" transform="translate(-29.393 -10.332)" fill="#fff"/>
    <path id="XMLID_23_" d="M11.134,21.65a.975.975,0,0,1,.041-1.95.919.919,0,0,1,.934.934A1,1,0,0,1,11.134,21.65Z" transform="translate(-6.057 -11.698)" fill="#fff"/>
    <path id="XMLID_22_" d="M21.869,22.671a.929.929,0,0,1-.934.975A.907.907,0,0,1,20,22.671a.954.954,0,0,1,.934-.975A.907.907,0,0,1,21.869,22.671Z" transform="translate(-11.876 -12.882)" fill="#fff"/>
    <path id="XMLID_21_" d="M4.769,23.375a.907.907,0,0,1-.934.975.977.977,0,0,1-.041-1.95A.939.939,0,0,1,4.769,23.375Z" transform="translate(-1.722 -13.301)" fill="#fff"/>
    <path id="XMLID_20_" d="M4.769,40.23a.907.907,0,0,1-.934.975.919.919,0,0,1-.934-.934.907.907,0,0,1,.934-.975A.855.855,0,0,1,4.769,40.23Z" transform="translate(-1.722 -23.332)" fill="#fff"/>
    <path id="XMLID_19_" d="M52.934,41.205A.907.907,0,0,1,52,40.23a.886.886,0,0,1,.975-.934.9.9,0,0,1,.894.975A.919.919,0,0,1,52.934,41.205Z" transform="translate(-30.877 -23.332)" fill="#fff"/>
    <path id="XMLID_18_" d="M9.434,45.75a.907.907,0,0,1-.934-.975.929.929,0,0,1,.934-.975.919.919,0,0,1,.934.934A.94.94,0,0,1,9.434,45.75Z" transform="translate(-5.047 -26.008)" fill="#fff"/>
    <path id="XMLID_17_" d="M22.434,49.05a.977.977,0,0,1-.041-1.95.907.907,0,0,1,.975.934A.941.941,0,0,1,22.434,49.05Z" transform="translate(-12.767 -27.968)" fill="#fff"/>
    <path id="XMLID_16_" d="M51.569,52.475a.929.929,0,0,1-.934.975.965.965,0,0,1-.934-1.016.9.9,0,0,1,.934-.934A.907.907,0,0,1,51.569,52.475Z" transform="translate(-29.512 -30.58)" fill="#f99c1c"/>
    <path id="XMLID_15_" d="M7.034,32.5a.965.965,0,0,1,.934,1.016.886.886,0,0,1-.975.934.977.977,0,0,1,.041-1.95Z" transform="translate(-3.622 -19.298)" fill="#fff"/>
    <path id="XMLID_14_" d="M56.269,33.916a.935.935,0,1,1-1.869,0,.99.99,0,0,1,.934-1.016A.965.965,0,0,1,56.269,33.916Z" transform="translate(-32.302 -19.536)" fill="#fff"/>
    <path id="XMLID_13_" d="M57.434,11.6a.886.886,0,0,1,.934.975.929.929,0,0,1-.934.975.976.976,0,0,1,0-1.95Z" transform="translate(-33.549 -6.888)" fill="#fff"/>
    <path id="XMLID_12_" d="M36.8,17.775a.939.939,0,0,1,.975-.975.977.977,0,0,1-.041,1.95A.886.886,0,0,1,36.8,17.775Z" transform="translate(-21.852 -9.976)" fill="#fff"/>
    <path id="XMLID_11_" d="M29.469.975a.935.935,0,1,1-1.869,0A.9.9,0,0,1,28.494,0,.917.917,0,0,1,29.469.975Z" transform="translate(-16.389)" fill="#fff"/>
    <path id="XMLID_10_" d="M43.075,21.25a.975.975,0,0,1-.041-1.95.919.919,0,0,1,.934.934A.932.932,0,0,1,43.075,21.25Z" transform="translate(-24.999 -11.46)" fill="#fff"/>
    <path id="XMLID_9_" d="M32.169,19.071a.935.935,0,1,1-1.869,0,.954.954,0,0,1,.934-.975A.886.886,0,0,1,32.169,19.071Z" transform="translate(-17.992 -10.744)" fill="#fff"/>
    <path id="XMLID_8_" d="M27.869,25.975a.929.929,0,0,1-.934.975A.965.965,0,0,1,26,25.934.919.919,0,0,1,26.934,25,.929.929,0,0,1,27.869,25.975Z" transform="translate(-15.439 -14.845)" fill="#fff"/>
    <path id="XMLID_7_" d="M9.934,28.65A.907.907,0,0,1,9,27.675a.939.939,0,0,1,.975-.975.919.919,0,0,1,.934.934A1,1,0,0,1,9.934,28.65Z" transform="translate(-5.344 -15.854)" fill="#fff"/>
    <path id="XMLID_6_" d="M61.234,32a.907.907,0,0,1,.934.975.939.939,0,0,1-.975.975A.977.977,0,0,1,61.234,32Z" transform="translate(-35.806 -19.001)" fill="#fff"/>
    <path id="XMLID_5_" d="M17.564,16.816a.886.886,0,0,1-.975.934.87.87,0,0,1-.894-1.016.919.919,0,0,1,.934-.934A.99.99,0,0,1,17.564,16.816Z" transform="translate(-9.318 -9.382)" fill="#fff"/>
    <path id="XMLID_4_" d="M26.169,6.775a.935.935,0,1,1-1.869,0,.935.935,0,1,1,1.869,0Z" transform="translate(-14.429 -3.444)" fill="#fff"/>
    <path id="XMLID_3_" d="M13.934,51.05A.907.907,0,0,1,13,50.075a.921.921,0,0,1,.894-.975.939.939,0,0,1,.975.975A.905.905,0,0,1,13.934,51.05Z" transform="translate(-7.719 -29.155)" fill="#fff"/>
  </g>
  <rect id="XMLID_72_" width="133.316" height="18.564" transform="translate(34.284 3.006)" fill="none"/>
  <g id="Group_2140" data-name="Group 2140" transform="translate(34.487 3.818)">
    <path id="Path_5671" data-name="Path 5671" d="M98.183,22.086H88.231L86.037,26.92H84.9L92.618,9.9h1.1l7.8,17.02h-1.137Zm-.447-1.016-4.549-9.993-4.509,9.993Z" transform="translate(-84.9 -9.697)" fill="#fff"/>
    <path id="Path_5672" data-name="Path 5672" d="M145.352,26.977a6.018,6.018,0,0,1-6.134,6.377,5.8,5.8,0,0,1-5.4-3.331v8.043H132.8V20.641h1.016v3.331a5.69,5.69,0,0,1,5.4-3.371A6.019,6.019,0,0,1,145.352,26.977Zm-1.016,0a5.263,5.263,0,1,0-10.521,0,5.262,5.262,0,1,0,10.521,0Z" transform="translate(-113.343 -16.051)" fill="#fff"/>
    <path id="Path_5673" data-name="Path 5673" d="M178.568,20.6v1.056c-2.8,0-4.509,1.869-4.712,4.793v6.865H172.8V20.6h1.016v3.209A4.851,4.851,0,0,1,178.568,20.6Z" transform="translate(-137.095 -16.051)" fill="#fff"/>
    <path id="Path_5674" data-name="Path 5674" d="M194.706,10.294a.868.868,0,0,1-.853.894.895.895,0,0,1,0-1.787A.924.924,0,0,1,194.706,10.294Zm-.366,3.656V26.664h-1.016V13.949Z" transform="translate(-149.089 -9.4)" fill="#fff"/>
    <path id="Path_5675" data-name="Path 5675" d="M211.656,21.575a5.121,5.121,0,0,0-5.24,5.4,5.132,5.132,0,0,0,5.24,5.443,5.332,5.332,0,0,0,4.143-1.787l.609.65a6.213,6.213,0,0,1-4.793,2.072,6.083,6.083,0,0,1-6.215-6.377,6.083,6.083,0,0,1,6.215-6.377,6.313,6.313,0,0,1,4.549,1.787l-.569.731A5.628,5.628,0,0,0,211.656,21.575Z" transform="translate(-156.452 -16.051)" fill="#fff"/>
    <path id="Path_5676" data-name="Path 5676" d="M249.811,26.877a6.257,6.257,0,1,1-12.511,0,6.257,6.257,0,1,1,12.511,0Zm-11.5,0a5.283,5.283,0,1,0,10.561,0,5.282,5.282,0,1,0-10.561,0Z" transform="translate(-175.394 -15.991)" fill="#fff"/>
    <path id="Path_5677" data-name="Path 5677" d="M281.193,28.323a4.59,4.59,0,0,1-2.64.894c-1.787.041-2.884-1.137-2.884-3.534v-8H273.8v-.894h1.869V13.7h.975v3.128h4.306v.894h-4.306V25.6c0,1.787.691,2.681,2.031,2.64a3.918,3.918,0,0,0,2.153-.731Z" transform="translate(-197.068 -11.953)" fill="#fff"/>
    <path id="Path_5678" data-name="Path 5678" d="M301.616,9.9V25.945h7.6v1.016H300.6V9.941h1.016Z" transform="translate(-212.982 -9.697)" fill="#fff"/>
    <path id="Path_5679" data-name="Path 5679" d="M336.1,33.255l-.041-2.518a5.556,5.556,0,0,1-5.078,2.518c-2.518,0-4.184-1.584-4.184-3.737,0-2.112,1.787-3.412,4.712-3.412h4.509V24.846c-.041-2.153-1.259-3.453-3.818-3.453a6.945,6.945,0,0,0-4.265,1.665l-.487-.772a7.926,7.926,0,0,1,4.915-1.787c3.006,0,4.631,1.665,4.671,4.306l.041,8.449Zm0-4.143V27.04h-4.428c-2.478,0-3.859.853-3.859,2.478,0,1.665,1.3,2.843,3.371,2.843A4.787,4.787,0,0,0,336.1,29.112Z" transform="translate(-228.539 -15.991)" fill="#fff"/>
    <path id="Path_5680" data-name="Path 5680" d="M357.337,20.6l4.224,11.617L365.786,20.6h1.1l4.225,11.617L375.332,20.6h1.056L371.6,33.314h-1.056L366.315,21.94l-4.265,11.374h-1.056L356.2,20.6h1.137Z" transform="translate(-245.997 -16.051)" fill="#fff"/>
  </g>
</svg>
