<svg xmlns="http://www.w3.org/2000/svg" width="20.279" height="38.851" viewBox="0 0 20.279 38.851">
  <path id="facebook_logo" d="M49.181,30.731c1.2-.039,2.407,0,3.613,0h.485V24.458c-.645-.068-1.317-.158-1.988-.192-1.235-.055-2.468-.113-3.708-.09a9.057,9.057,0,0,0-5.23,1.62,7.83,7.83,0,0,0-3.142,5.225,17.766,17.766,0,0,0-.221,2.689c-.039,1.4,0,2.813,0,4.214v.527H33v6.992h5.957V63.022h7.282V45.474h5.939c.305-2.328.6-4.63.911-7.032h-6.9s.016-3.466.063-4.97C46.305,31.424,47.527,30.795,49.181,30.731Z" transform="translate(-33 -24.171)" fill="#b44446" fill-rule="evenodd"/>
</svg>
