<svg xmlns="http://www.w3.org/2000/svg" width="45.025" height="38.867" viewBox="0 0 45.025 38.867">
  <g id="XMLID_1_" transform="translate(-80.8 -90.4)">
    <g id="XMLID_2221_" transform="translate(80.8 90.4)">
      <path id="XMLID_2235_" d="M122.7,92.55a2.98,2.98,0,0,0-2.8-2.15H86.762a2.98,2.98,0,0,0-2.8,2.15L80.8,104.768a5.636,5.636,0,0,0,11.272,0h0a5.636,5.636,0,0,0,11.272,0h0a5.628,5.628,0,0,0,11.24.391,5.628,5.628,0,0,0,11.24-.391h0Z" transform="translate(-80.8 -90.4)" fill="#b44446"/>
      <path id="XMLID_2222_" d="M122.158,145.262a6.679,6.679,0,0,1-1.271-1.629,6.679,6.679,0,0,1-1.271,1.629,6.376,6.376,0,0,1-8.862-.13,6.463,6.463,0,0,1-1.14-1.531,6.463,6.463,0,0,1-1.14,1.531,6.371,6.371,0,0,1-8.992,0,6.462,6.462,0,0,1-1.14-1.531,6.463,6.463,0,0,1-1.14,1.531,6.308,6.308,0,0,1-4.5,1.857,6.451,6.451,0,0,1-2.606-.554v15.508a3.2,3.2,0,0,0,3.193,3.193H125.84a3.2,3.2,0,0,0,3.193-3.193V146.467a6.3,6.3,0,0,1-2.574.554A6.445,6.445,0,0,1,122.158,145.262Zm-1.824,17.072a5.6,5.6,0,1,1,0-11.207,5.382,5.382,0,0,1,3.747,1.466l-1.531,1.466a3.184,3.184,0,0,0-2.215-.847,3.519,3.519,0,0,0,0,7.037,3.012,3.012,0,0,0,3.16-2.411h-3.16v-1.922h5.278a7.122,7.122,0,0,1,.1.912A5.2,5.2,0,0,1,120.334,162.333Z" transform="translate(-87.07 -126.268)" fill="#b44446"/>
    </g>
  </g>
</svg>
