<svg id="linkedin_logo" xmlns="http://www.w3.org/2000/svg" width="38.925" height="38.866" viewBox="0 0 38.925 38.866">
  <path id="Path_5681" data-name="Path 5681" d="M9.571,19.834h8.075V45.793H9.571ZM13.608,6.94a4.68,4.68,0,1,1-3.313,1.367A4.677,4.677,0,0,1,13.608,6.94" transform="translate(-8.92 -6.94)" fill="#b44446"/>
  <path id="Path_5682" data-name="Path 5682" d="M14.667,12.674H22.4v3.542h.1a8.48,8.48,0,0,1,7.637-4.193c8.164,0,9.665,5.375,9.665,12.378V38.647H31.733V26.005c0-3.013-.047-6.895-4.193-6.895-4.193,0-4.846,3.279-4.846,6.652V38.61H14.62V12.674Z" transform="translate(-0.88 0.22)" fill="#b44446"/>
</svg>
