<svg xmlns="http://www.w3.org/2000/svg" width="47.737" height="38.858" viewBox="0 0 47.737 38.858">
  <path id="twitter_logo" d="M23,38.481a9.865,9.865,0,0,1-9.133-6.8,9.705,9.705,0,0,0,4.214-.113c.029,0,.055-.029.14-.055a9.834,9.834,0,0,1-6.376-4.5A9.394,9.394,0,0,1,10.412,21.8a9.536,9.536,0,0,0,4.356,1.18,9.939,9.939,0,0,1-4.045-5.957,9.815,9.815,0,0,1,1.04-7.111A28.014,28.014,0,0,0,31.994,20.169c-.055-.392-.113-.73-.169-1.067A9.794,9.794,0,0,1,39.919,8.255a9.615,9.615,0,0,1,8.6,2.726.527.527,0,0,0,.527.14,19.831,19.831,0,0,0,5.7-2.191.283.283,0,0,1,.14-.055h.055a10.142,10.142,0,0,1-4.187,5.338,18.214,18.214,0,0,0,5.452-1.462c.029.029.029.029.029.055-.366.506-.73.982-1.125,1.462a18.614,18.614,0,0,1-3.569,3.4.353.353,0,0,0-.169.308,28.1,28.1,0,0,1-.169,4.356,28.658,28.658,0,0,1-2.528,8.738A28.053,28.053,0,0,1,43.366,38.8a26.236,26.236,0,0,1-13.481,7.5,29.761,29.761,0,0,1-5.452.645A27.732,27.732,0,0,1,8.724,42.723c-.055-.029-.113-.084-.224-.14a20.016,20.016,0,0,0,9.808-1.348A21.859,21.859,0,0,0,23,38.481Z" transform="translate(-8.5 -8.097)" fill="#b44446" fill-rule="evenodd"/>
</svg>
