<svg xmlns="http://www.w3.org/2000/svg" width="196.151" height="38.938" viewBox="0 0 196.151 38.938">
  <g id="Layer_1" data-name="Layer 1" transform="translate(-12.277 -43.244)">
    <g id="Group_3118" data-name="Group 3118" transform="translate(63.474 58.093)">
      <path id="Path_5736" data-name="Path 5736" d="M128.376,76.041h.819l1.736,4.226,1.736-4.226h.819l-2.048,4.9,2.441,5.668,4.455-10.648h.918l-4.98,11.631h-.77l-2.556-5.98-2.572,5.98h-.77l-4.964-11.631h.9l4.472,10.648,2.408-5.668Z" transform="translate(-122.642 -75.631)" fill="#fcfdff"/>
      <path id="Path_5737" data-name="Path 5737" d="M160.816,76.76V75.253h.819V76.76Zm0,10.451V78.693h.819v8.518Z" transform="translate(-143.108 -75.253)" fill="#fcfdff"/>
      <path id="Path_5738" data-name="Path 5738" d="M167.383,75.253h.835V85.524a1.034,1.034,0,0,0,.27.754.991.991,0,0,0,.745.278,2.786,2.786,0,0,0,.434-.041,2.3,2.3,0,0,0,.467-.123l.164.655a3.39,3.39,0,0,1-.688.188,4.07,4.07,0,0,1-.7.074,1.5,1.5,0,0,1-1.105-.418,1.517,1.517,0,0,1-.418-1.122Z" transform="translate(-146.628 -75.253)" fill="#fcfdff"/>
      <path id="Path_5739" data-name="Path 5739" d="M178.321,87.408c-.044.022-.118.063-.221.122a2.285,2.285,0,0,1-.393.173,4.8,4.8,0,0,1-.533.147,2.95,2.95,0,0,1-.639.066,2.086,2.086,0,0,1-.647-.1,1.535,1.535,0,0,1-.533-.3,1.4,1.4,0,0,1-.36-.475,1.521,1.521,0,0,1-.131-.655V79.971h-1.2V79.3h1.2V76.383h.819V79.3h1.982v.672h-1.982V86.2a.823.823,0,0,0,.327.713,1.226,1.226,0,0,0,.737.238,2.06,2.06,0,0,0,.877-.172q.368-.172.45-.221Z" transform="translate(-149.998 -75.859)" fill="#fcfdff"/>
      <path id="Path_5740" data-name="Path 5740" d="M201.8,87.42l-1.49-1.556a5.2,5.2,0,0,1-1.573,1.253,4.28,4.28,0,0,1-2,.467,4.515,4.515,0,0,1-1.384-.213,3.671,3.671,0,0,1-1.171-.615,2.965,2.965,0,0,1-.8-.966,2.737,2.737,0,0,1-.3-1.286,2.837,2.837,0,0,1,.205-1.089,3.434,3.434,0,0,1,.557-.918,5.989,5.989,0,0,1,.819-.795q.466-.376.991-.72-.459-.492-.778-.893a6.933,6.933,0,0,1-.516-.729,2.766,2.766,0,0,1-.286-.631,2.081,2.081,0,0,1-.09-.6,2.147,2.147,0,0,1,.221-.958,2.645,2.645,0,0,1,.6-.794,2.749,2.749,0,0,1,.9-.541,3.194,3.194,0,0,1,1.13-.2,3,3,0,0,1,1.032.173,2.717,2.717,0,0,1,.827.467,2.094,2.094,0,0,1,.549.7,2.016,2.016,0,0,1,.2.885,2.079,2.079,0,0,1-.212.925,3.272,3.272,0,0,1-.582.819,6.388,6.388,0,0,1-.852.737q-.484.353-1.008.713L200.3,84.7a5.787,5.787,0,0,0,.558-1.4,6.308,6.308,0,0,0,.2-1.58h.721a6.767,6.767,0,0,1-.983,3.506l2.113,2.2Zm-4.963-.508a3.417,3.417,0,0,0,1.687-.418,4.35,4.35,0,0,0,1.31-1.122l-3.7-3.883q-.476.328-.877.655a5.394,5.394,0,0,0-.713.7,2.981,2.981,0,0,0-.483.787,2.364,2.364,0,0,0-.172.909,1.984,1.984,0,0,0,.262,1.032,2.457,2.457,0,0,0,.68.745,2.936,2.936,0,0,0,.95.45A3.942,3.942,0,0,0,196.841,86.912Zm-2.081-8.8a1.62,1.62,0,0,0,.058.426,1.922,1.922,0,0,0,.229.492,6.094,6.094,0,0,0,.475.647q.3.369.778.876a13.649,13.649,0,0,0,1.736-1.3,1.793,1.793,0,0,0,.655-1.351,1.438,1.438,0,0,0-.524-1.139,1.99,1.99,0,0,0-1.344-.45,2.23,2.23,0,0,0-.819.148,2.19,2.19,0,0,0-.655.393,1.768,1.768,0,0,0-.434.573A1.576,1.576,0,0,0,194.761,78.115Z" transform="translate(-160.41 -75.461)" fill="#fcfdff"/>
      <path id="Path_5741" data-name="Path 5741" d="M225.083,87.59V75.959h.835v7.06l6.782-7.06h.966l-4.832,5.095,5.078,6.536h-.95l-4.669-6.029L225.918,84V87.59Z" transform="translate(-177.562 -75.631)" fill="#fcfdff"/>
      <path id="Path_5742" data-name="Path 5742" d="M246.236,75.253h.835V85.524a1.034,1.034,0,0,0,.27.754.989.989,0,0,0,.745.278,2.792,2.792,0,0,0,.435-.041,2.29,2.29,0,0,0,.466-.123l.164.655a3.4,3.4,0,0,1-.688.188,4.07,4.07,0,0,1-.7.074,1.5,1.5,0,0,1-1.106-.418,1.519,1.519,0,0,1-.418-1.122Z" transform="translate(-188.902 -75.253)" fill="#fcfdff"/>
      <path id="Path_5743" data-name="Path 5743" d="M255.64,91.181a2.924,2.924,0,0,1-1.99-.762,2.467,2.467,0,0,1-.6-.835,2.551,2.551,0,0,1-.213-1.04,2.009,2.009,0,0,1,.262-1.016,2.517,2.517,0,0,1,.729-.795,3.629,3.629,0,0,1,1.122-.524,5.216,5.216,0,0,1,1.441-.188,7.935,7.935,0,0,1,1.385.123,6.868,6.868,0,0,1,1.253.336v-.835a2.655,2.655,0,0,0-.687-1.925,2.476,2.476,0,0,0-1.868-.713,3.755,3.755,0,0,0-1.319.262,6.745,6.745,0,0,0-1.417.754l-.311-.557a5.593,5.593,0,0,1,3.113-1.114,3.259,3.259,0,0,1,2.424.893,3.349,3.349,0,0,1,.885,2.465V89.87c0,.273.12.41.36.41v.737a1.617,1.617,0,0,1-.172.024c-.06.006-.112.008-.155.008a.666.666,0,0,1-.524-.221.924.924,0,0,1-.23-.532v-.7a3.829,3.829,0,0,1-1.507,1.18A4.809,4.809,0,0,1,255.64,91.181Zm.164-.655a4.176,4.176,0,0,0,1.745-.36,2.984,2.984,0,0,0,1.22-.95,1.1,1.1,0,0,0,.262-.655V87.053a6.629,6.629,0,0,0-1.228-.344,7.536,7.536,0,0,0-1.327-.115,4.55,4.55,0,0,0-1.163.139,3.086,3.086,0,0,0-.9.385,1.782,1.782,0,0,0-.582.6,1.522,1.522,0,0,0-.2.778,1.993,1.993,0,0,0,.164.8,1.9,1.9,0,0,0,.458.647,2.2,2.2,0,0,0,.7.426A2.358,2.358,0,0,0,255.8,90.525Z" transform="translate(-192.442 -79.058)" fill="#fcfdff"/>
      <path id="Path_5744" data-name="Path 5744" d="M274.98,91.351q-2.72,0-2.719-3.768V82.669h.819v4.8q0,3.146,2.146,3.146a2.99,2.99,0,0,0,1.048-.188A3.678,3.678,0,0,0,278,89.091a4.12,4.12,0,0,0,.533-1.049V82.669h.819v7.372q0,.409.344.41v.737a.78.78,0,0,1-.147.016h-.1A.9.9,0,0,1,278.87,91a.668.668,0,0,1-.254-.548V89.172a4.1,4.1,0,0,1-3.636,2.179Z" transform="translate(-202.854 -79.229)" fill="#fcfdff"/>
      <path id="Path_5745" data-name="Path 5745" d="M294.114,91.181a5.478,5.478,0,0,1-1.884-.328,4.356,4.356,0,0,1-1.573-.983l.41-.557a4.782,4.782,0,0,0,1.425.918,4.334,4.334,0,0,0,1.622.295,3.113,3.113,0,0,0,1.794-.467,1.492,1.492,0,0,0,.68-1.3,1.214,1.214,0,0,0-.172-.664,1.38,1.38,0,0,0-.516-.458,4.266,4.266,0,0,0-.852-.336q-.508-.147-1.179-.311-.722-.164-1.254-.328a3.371,3.371,0,0,1-.876-.393,1.519,1.519,0,0,1-.516-.557,1.791,1.791,0,0,1-.172-.835,2.394,2.394,0,0,1,.246-1.114,2.191,2.191,0,0,1,.68-.786,3.135,3.135,0,0,1,1-.467,4.528,4.528,0,0,1,1.2-.155,4.393,4.393,0,0,1,1.769.336,3.106,3.106,0,0,1,1.2.86l-.459.442a2.6,2.6,0,0,0-1.106-.737,4.234,4.234,0,0,0-1.45-.245,3.9,3.9,0,0,0-.893.1,2.168,2.168,0,0,0-.729.311,1.541,1.541,0,0,0-.492.549,1.663,1.663,0,0,0-.18.795,1.285,1.285,0,0,0,.122.606,1.038,1.038,0,0,0,.393.393,2.885,2.885,0,0,0,.7.287q.425.123,1.015.27.8.2,1.425.377a4.133,4.133,0,0,1,1.04.442,1.951,1.951,0,0,1,.639.623,1.734,1.734,0,0,1,.221.918A2.177,2.177,0,0,1,296.5,90.5,3.839,3.839,0,0,1,294.114,91.181Z" transform="translate(-212.717 -79.058)" fill="#fcfdff"/>
      <path id="Path_5746" data-name="Path 5746" d="M308.385,76.76V75.253h.819V76.76Zm0,10.451V78.693h.819v8.518Z" transform="translate(-222.221 -75.253)" fill="#fcfdff"/>
      <path id="Path_5747" data-name="Path 5747" d="M321.774,91.017h-.819V86.266a4.733,4.733,0,0,0-.467-2.408,1.615,1.615,0,0,0-1.482-.754,3.081,3.081,0,0,0-1.073.2,3.634,3.634,0,0,0-.991.557,4.064,4.064,0,0,0-.8.843,3.457,3.457,0,0,0-.508,1.041v5.275h-.819V82.5h.77V84.53a4,4,0,0,1,.647-.893,4.089,4.089,0,0,1,.868-.688,4.379,4.379,0,0,1,1.024-.443,4.014,4.014,0,0,1,1.114-.155,2.093,2.093,0,0,1,1.965.975,5.562,5.562,0,0,1,.574,2.793Z" transform="translate(-225.667 -79.058)" fill="#fcfdff"/>
      <path id="Path_5748" data-name="Path 5748" d="M337.027,91.148a3.574,3.574,0,0,1-1.622-.369,4.06,4.06,0,0,1-1.269-.983,4.688,4.688,0,0,1-.835-1.4,4.461,4.461,0,0,1-.3-1.622,4.918,4.918,0,0,1,.287-1.671,4.476,4.476,0,0,1,.81-1.417,3.907,3.907,0,0,1,1.253-.975,3.589,3.589,0,0,1,1.613-.36,3.289,3.289,0,0,1,1.941.582,5.584,5.584,0,0,1,1.4,1.417V82.5h.754v8.682a3.377,3.377,0,0,1-.328,1.523,3.2,3.2,0,0,1-.877,1.089,3.837,3.837,0,0,1-1.278.655,5.261,5.261,0,0,1-1.532.221,5.8,5.8,0,0,1-1.327-.14,3.976,3.976,0,0,1-1.04-.393,3.443,3.443,0,0,1-.8-.623,4.471,4.471,0,0,1-.614-.811l.557-.377a3.061,3.061,0,0,0,1.376,1.27,4.364,4.364,0,0,0,1.851.4,4.158,4.158,0,0,0,1.237-.18,3,3,0,0,0,1.015-.533,2.534,2.534,0,0,0,.688-.876,2.787,2.787,0,0,0,.254-1.228V89.313a3.933,3.933,0,0,1-1.393,1.335A3.6,3.6,0,0,1,337.027,91.148Zm.2-.7a2.836,2.836,0,0,0,1.057-.205,3.726,3.726,0,0,0,.934-.533,3.107,3.107,0,0,0,.688-.737,2.091,2.091,0,0,0,.336-.819v-2.8a3.693,3.693,0,0,0-.524-.909,3.56,3.56,0,0,0-.745-.713,3.7,3.7,0,0,0-.9-.467,2.888,2.888,0,0,0-.974-.172,2.851,2.851,0,0,0-1.376.328,3.3,3.3,0,0,0-1.024.852,3.833,3.833,0,0,0-.639,1.188,4.209,4.209,0,0,0-.221,1.335,3.718,3.718,0,0,0,.262,1.392,3.851,3.851,0,0,0,.721,1.163,3.406,3.406,0,0,0,1.081.8A3.057,3.057,0,0,0,337.224,90.444Z" transform="translate(-235.416 -79.058)" fill="#fcfdff"/>
      <path id="Path_5749" data-name="Path 5749" d="M355.611,100.749l.246-1.294h-.3V98.03h.835v1.425l-.344,1.294Z" transform="translate(-247.513 -87.464)" fill="#fcfdff"/>
      <path id="Path_5750" data-name="Path 5750" d="M370.649,90.013V80.478h3.921a2.46,2.46,0,0,1,1.114.255,2.845,2.845,0,0,1,.88.678,3.247,3.247,0,0,1,.577.953,2.906,2.906,0,0,1,.208,1.068,3.24,3.24,0,0,1-.195,1.114,3.055,3.055,0,0,1-.55.954,2.7,2.7,0,0,1-.853.665,2.427,2.427,0,0,1-1.1.248h-3.317v3.6Zm.685-4.23h3.29a1.812,1.812,0,0,0,.846-.195,1.944,1.944,0,0,0,.638-.524,2.427,2.427,0,0,0,.4-.752,2.758,2.758,0,0,0,.141-.88,2.4,2.4,0,0,0-.167-.893,2.479,2.479,0,0,0-.456-.745,2.2,2.2,0,0,0-.672-.51,1.818,1.818,0,0,0-.813-.188h-3.209Z" transform="translate(-255.601 -78.054)" fill="#fcfdff"/>
      <path id="Path_5751" data-name="Path 5751" d="M387.9,90.013V80.478h.685v8.917h5.694v.618Z" transform="translate(-264.851 -78.054)" fill="#fcfdff"/>
      <path id="Path_5752" data-name="Path 5752" d="M404,90.013V80.478h.685v8.917h5.694v.618Z" transform="translate(-273.48 -78.054)" fill="#fcfdff"/>
      <path id="Path_5753" data-name="Path 5753" d="M417.371,85.116a5.1,5.1,0,0,1,.3-1.712,4.753,4.753,0,0,1,.879-1.524,4.539,4.539,0,0,1,1.417-1.095,4.193,4.193,0,0,1,1.914-.423,3.909,3.909,0,0,1,2.176.584,3.685,3.685,0,0,1,1.343,1.5l-.564.322a3.21,3.21,0,0,0-.6-.833,3.139,3.139,0,0,0-.739-.544,3.266,3.266,0,0,0-.826-.3,3.95,3.95,0,0,0-.846-.094,3.4,3.4,0,0,0-1.612.369,3.812,3.812,0,0,0-1.182.96,4.19,4.19,0,0,0-.732,1.336,4.725,4.725,0,0,0-.248,1.5,4.432,4.432,0,0,0,.3,1.612,4.492,4.492,0,0,0,.806,1.349,3.913,3.913,0,0,0,1.209.933,3.314,3.314,0,0,0,1.5.349,3.849,3.849,0,0,0,.886-.108,3.453,3.453,0,0,0,.873-.335,3.564,3.564,0,0,0,.779-.585,3.106,3.106,0,0,0,.6-.839l.591.282a3.2,3.2,0,0,1-.658.953,4.165,4.165,0,0,1-.926.7,4.42,4.42,0,0,1-1.081.423,4.658,4.658,0,0,1-1.121.141,3.77,3.77,0,0,1-1.793-.43,4.746,4.746,0,0,1-1.4-1.121,5.189,5.189,0,0,1-.919-1.571A5.067,5.067,0,0,1,417.371,85.116Z" transform="translate(-280.65 -77.993)" fill="#fcfdff"/>
    </g>
    <g id="Group_3119" data-name="Group 3119" transform="translate(12.277 43.244)">
      <path id="Path_5754" data-name="Path 5754" d="M13.906,68a20.224,20.224,0,0,1,1.01-1.994,26.2,26.2,0,0,1,1.995-3.073,37.154,37.154,0,0,1,3.4-3.787,46.214,46.214,0,0,1,5.014-4.312q.511-.4.512-.512a.1.1,0,0,0-.108-.108q-2.021,0-6.725,2.7T13.246,61.3c-.054.162-.135.243-.243.243s-.161-.135-.161-.4a3.414,3.414,0,0,1,.7-1.442,12.67,12.67,0,0,1,2.035-2.237,24.765,24.765,0,0,1,2.979-2.278,16.116,16.116,0,0,1,3.814-1.792,13.694,13.694,0,0,1,4.3-.714c.144.054.328.122.552.2a4.114,4.114,0,0,1,.89.512q.552.391.552.714a.744.744,0,0,1-.135.485q-2.076,1.887-4.65,4.555a56.74,56.74,0,0,0-3.949,4.448l-1.941,2.534a.777.777,0,0,0-.161.377v.027l.431-.216a.307.307,0,0,0,.081-.054q9.838-6.927,13.18-9.811a.256.256,0,0,1,.216-.108.21.21,0,0,1,.188.081,5.367,5.367,0,0,0,.512.5q.459.418.458.62a.422.422,0,0,1-.161.337,46.082,46.082,0,0,0-5.445,6.361q-2.776,3.828-2.776,5.9a.214.214,0,0,0,.243.243,7.119,7.119,0,0,0,2.533-1.456q1.995-1.455,4.542-3.693a59.257,59.257,0,0,0,5.391-5.485,42.07,42.07,0,0,0,4.65-6.321q.242-.511.377-.849a.447.447,0,0,1,.418-.337q.283,0,.593.8a3.919,3.919,0,0,1,.31,1.388q0,.944-2.156,3.774-1.453,1.907-3.239,3.9c.731-.8,1.556-1.654,2.485-2.566A80.737,80.737,0,0,1,47.3,53.727a.435.435,0,0,1,.351-.161.539.539,0,0,1,.4.216l.27.3a.3.3,0,0,1,.135.229c0,.081-.1.238-.31.471s-.948,1.061-2.224,2.48Q41.7,61.922,41.076,62.73c-.216.216-.323.347-.323.391s.018.067.054.067a1.16,1.16,0,0,0,.27-.081,33.832,33.832,0,0,0,7.116-3.329c1-.58,1.832-1.1,2.5-1.557a19.469,19.469,0,1,0-37.257,11.1c.029-.1.064-.216.111-.343Q13.731,68.472,13.906,68Z" transform="translate(-12.277 -43.244)" fill="#fcfdff"/>
      <path id="Path_5755" data-name="Path 5755" d="M75.87,85.135a4.912,4.912,0,0,0,1.172,1.94,27.926,27.926,0,0,0,2.776,2.992,8.643,8.643,0,0,0,2.534,1.846,2.007,2.007,0,0,1,.7.388,19.38,19.38,0,0,0,2.257-9.1c0-.586-.031-1.165-.081-1.738a66.8,66.8,0,0,1-8.9,3.4C76.023,84.956,75.87,85.045,75.87,85.135Z" transform="translate(-46.37 -63.735)" fill="#fcfdff"/>
      <path id="Path_5756" data-name="Path 5756" d="M47.419,94.72A6.631,6.631,0,0,1,45.8,93.264q-.8-.957-1.4-1.819t-1.415-2.116q-.809-1.253-1.118-1.671t-.458-.418a.27.27,0,0,0-.229.108q-1.995,2.372-2.965,3.76A15.122,15.122,0,0,0,36.6,94.086q-.026.243-.216.243-.242,0-.8-.593a2.41,2.41,0,0,1-.66-1.24q0-1.428,3.342-5.795c.47-.627,1.032-1.306,1.675-2.03q-.662.726-1.366,1.464a45.71,45.71,0,0,1-6.118,5.377q-3.235,2.359-5.094,2.358a2.819,2.819,0,0,1-1.766-.7,2.729,2.729,0,0,1-.876-2.264,8.083,8.083,0,0,1,1.159-3.989,6.758,6.758,0,0,1,1.105-1.455l.62-.728.108-.216v-.027c0-.036-.01-.054-.027-.054q-.081,0-.243.162-6.011,5.283-8.14,7.021A9.192,9.192,0,0,1,16.8,93.359a.65.65,0,0,1-.408-.146,19.474,19.474,0,0,0,34.237,1.633,4.224,4.224,0,0,1-1.551.372A3.169,3.169,0,0,1,47.419,94.72Z" transform="translate(-14.483 -65.328)" fill="#fcfdff"/>
      <path id="Path_5757" data-name="Path 5757" d="M86.356,106.505a4.119,4.119,0,0,0,2.222-1.005s-.335.882-2.328,2.275S86.356,106.505,86.356,106.505Z" transform="translate(-51.474 -76.62)" fill="#fcfdff"/>
      <path id="Path_5758" data-name="Path 5758" d="M102.76,61.67a1.314,1.314,0,0,0-.837-.111,1.651,1.651,0,0,0-.373.124,2.215,2.215,0,0,0-1.083,1.36c.047-.138.225-.2.356-.208a.95.95,0,0,1,.548.155,2.479,2.479,0,0,1,.51.424,1.958,1.958,0,0,1,.492.84,1.784,1.784,0,0,1-.026.962c-.475,1.614-1.92,3.477-6.445,5.6l.032.475s5.015-1.854,7.015-4.647a4.986,4.986,0,0,0,.937-2.2,3.389,3.389,0,0,0-.188-1.689A2.018,2.018,0,0,0,102.76,61.67Z" transform="translate(-57.108 -53.049)" fill="#fcfdff"/>
    </g>
  </g>
</svg>
