<svg xmlns="http://www.w3.org/2000/svg" width="55.454" height="38.855" viewBox="0 0 55.454 38.855">
  <path id="youtube_logo" d="M13.227,46.065a6.5,6.5,0,0,1-4.264-4.148C7.12,36.863,6.569,15.657,10.133,11.48a6.9,6.9,0,0,1,4.646-2.455c9.552-1.022,39.083-.877,42.5.35a6.655,6.655,0,0,1,4.187,4.032c2.015,5.228,2.073,24.274-.263,29.328A6.458,6.458,0,0,1,58.2,45.775C54.591,47.642,17.9,47.613,13.227,46.065Zm15.162-9.926C34.143,33.16,39.84,30.208,45.594,27.2c-5.794-3.008-11.48-5.989-17.205-9Z" transform="translate(-7.514 -8.348)" fill="#b44446" fill-rule="evenodd"/>
</svg>
