<svg xmlns="http://www.w3.org/2000/svg" width="853.078" height="370.642" viewBox="0 0 853.078 370.642">
  <g id="Group_3104" data-name="Group 3104" transform="translate(-11.848 -231.357)">
    <path id="Path_5730" data-name="Path 5730" d="M677.329,586.53c12.385-2.425,25.033-7.453,36.559-11.958,18.779-7.34,19.078-13.163,30.752-25.427,2.331-2.451,9.063-1.328,12.405-1.618,3.611-.314,8.759-1.745,10.851-5.073,2.074-3.29.889-8.5,1.837-12.174,1.2-4.63,6.429-3.532,9.656-5.008s5.5-6.6,6.255-9.838c.592-2.526-.7-4.895,1-7.011,1.8-2.234,4.371-3.064,6.836-4.129,2.884-1.246,5.142-3.453,7.881-4.944a9.957,9.957,0,0,1,4.855-1.67c1.351-.007,3.552,1.362,4.836.3,1.734-1.435.125-3.918,2.426-5.607,2.472-1.813,6.023-2.065,8.824-3.158,3.578-1.4,6.2-4.825,8.905-7.5,3.024-2.987,6.451-5.593,9.38-8.905,3.735-4.221,8.765-6.252,12.721-10.221a86.446,86.446,0,0,0,7.515-8.713c.814-1.07,3.2-3.557,2.409-5.083-1.045-2.025-5.306-.21-6.958-1.041-1.253-.633-1.285-1.975-2.689-2.7-2.563-1.33-6.274,1.462-7.018-2.164-.284-1.381,1.087-1.939-.047-3.433-.877-1.157-2.473-.663-3.392-1.474-1.123-.987-.995-2.258-2.162-3.245a5.33,5.33,0,0,0-4.053-1.057c-.924-3.151-4.4-1.545-6.534-2.577-5.293-2.558-2.7-11.444-6.532-14.838-1.307-1.156-3.089-1.58-4.565-2.69-2.593-1.952-2.546-2.824-3.176-5.737-1.006-4.648-2.29-7.3-6.763-8.9-6.237-2.236-.808-6.433-2.467-10.735-1.076-2.785-3.9-1.53-5.749-3.031-2.309-1.875-2.679-6.805-4.641-9.232a92.64,92.64,0,0,0-7.009-7.549c-1.351-1.333-3.707-2.356-2.44-4.51,1.454-2.473,3.032-.5,3.173-4.315.084-2.263-1.04-4.465-.6-6.741.457-2.349,2.16-2.564,3.085-4.586a9.88,9.88,0,0,0,.008-6.478c-.687-2.136-1.722-3.352-1.954-5.657-.22-2.2,0-4.532,0-6.742,0-4.7-.9-8.071-5.124-10.53-1.418-.824-2.98-1.232-4.11-2.887-1.155-1.692-1.2-4.111-2.631-5.676-3.556-3.886-8.295-.7-12.346-2-1.024-.331-2.037-1.738-2.823-2.569-2.051-2.174-2.347-4.152-3.643-6.605-.747-1.417-1.089-1.293-1.415-3.17-.282-1.641-.563-2.931-1-4.585-.624-2.36.891-8.252-1.787-9.126-2.271-.741-5.591,2.948-7.724,3.479-3.288.814-5.277.235-7.763,2.966-2.312,2.542-5.19,4.376-7,7.279-1.679,2.687-3.344,5.7-6.556,6.68-3.389,1.031-7.1-.508-10.507.522-1.412.427-3.979,2.638-5.407,1.764-.951-.583-.362-2.051-.785-2.776-.83-1.424-1.71-.771-2.642-1.674-2-1.938-.6-2.825-3.834-3.18-2.184-.24-4.591.423-6.741,0-3.779-.746-6.542-5.507-10.519-5.122-2.174.21-3.915,1.973-6.2,2.426-3.122.62-3.9,1.381-5.458,4.255-1.255,2.31-2.568,4.936-5.66,3.9-1.637-.547-2.635-2.121-4.278-2.608-1.6-.474-2.793.448-4.377-.668-2.489-1.754-2.345-5.592-5.3-7.045-2.454-1.207-2.632-.893-4.043-3.507a11.049,11.049,0,0,0-3.722-4.1c-4.23-3.047-7.01-1.669-11.927-2.091-2.351-.2-4-.529-6.268-.072-2.236.449-3.327.694-5.591-.27-3.768-1.611-8.38-1.069-11.879-2.953-2.743-1.477-3.44-4.634-3.686-7.49-.34-3.848-.528-5.934-3.311-8.906-1.755-1.873-1.591-2.814-2.643-5.123-.815-1.786-2.048-2.664-2.69-4.586-.877-2.618-.66-3.522-3.243-4.921a23.7,23.7,0,0,0-4.369-2.1c-2.05-.544-3.8.793-5.331-1.141-1.293-1.632-.065-3.83-.548-5.654a13.9,13.9,0,0,0-1.767-3.537c-3.344-1.37-4.534.942-7.1,2.246-2.413,1.226-5.62,1.111-7.91,2.49-2.91,1.748-2.393,2.652-6.069.482a42.984,42.984,0,0,1-7.909-5.634c-1.245-1.277-1.524-4.84-4.1-4.092-1.59.462-3.592,4.968-5.12,6.149-2.041,1.579-4.606,2.947-6.467,4.577-5.92,5.18,3.033,9.492,2.617,14.286-.206,2.391-2.8,3.849-3.243,6.1-1.163,5.856,5.142,3.066,7.73,6.357a5.2,5.2,0,0,1,.937,2.868c-.127,3.025-.995,1.1-2.288,2.727-1.473,1.853-1.747,2.251-1.347,4.945.79,5.323-5.537,4.134-8.754,4.249-5.166.185-10.05,1.246-14.261,4.4C514.7,292.705,506.76,300,499.175,294.1c-3.725-2.9-6.23-3.309-10.99-3.3-3.793,0-9.216-1.6-11.934,1.821-1.3,1.631-1.216,3.475-.726,5.446a15.1,15.1,0,0,1,.586,6.277c-.244,2.549-.491,4.925.274,7.4.977,3.169,2.348,5.169.018,8.243-1.557,2.054-3,5.78-5.246,7.125-1.974,1.18-4.842.912-7.046,1.979a18.112,18.112,0,0,0-9.917,13.211c-.335,2.142.207,4.23-.862,6.136-.882,1.58-2.522,2.971-3.768,4.382-1.026,1.163-3.214,4.312-4.787,4.53-2.093.287-3.024-2.348-4.377-3.377-3.234-2.462-4.089.759-5.557,3.168a72.82,72.82,0,0,1-4.286,5.986c-1.955,2.541-3.672,3.282-4.392,6.553a64.453,64.453,0,0,0-.812,7.679c-.376,3.878.7,9.057-1.82,12.209-2.253,2.811-6.537,3.209-8.966,5.913-1.737,1.938-3.269,5.341-6.435,3.291-3.181-2.058-3.129-5.744-7.857-6.043-2.108-.131-4.513.369-6.467-.271-13.054-4.3-6.9-22.424-19.816-24.569a49.086,49.086,0,0,1,3.493,7.354c-4.229-.265-8.722,2.585-13.451,1.781.707,2.38.731,5.857,1.592,8.113-11.088,2.076-8.429,23.978-20.155,30.455-1.638.905-4.263.546-4.26-1.828,0-2.176,3.011-2.7,2.168-5.393-1.087-3.47-4.244-2.352-6.1-.574-.56.536-14.141-12.661-23.868-8.966-9.409,3.574-15.111,18.415-21.683,25.481.823-.885-22.366-15-24.336-16.818-2.533-2.336-5.326-4.814-8.778-5.609-3.833-.88-4.751,1-8.007,2.388-3.1,1.32-5.336,3.421-7.68.1-1.392-1.975-1.585-5.349-3.985-6.51-1.805-.874-2.748,1.422-3.371,3.294-.83,2.487-.432,3.3.952,5.393,2.033,3.079,2.41,8.455-2.158,10.12-1.669.609-4.955.291-6.075-1.085-1.574-1.935.312-3.838-.068-5.865-.581-3.105-4.624-2.781-6.733-1.838-3.009,1.346-5.082,4.457-8.711,2.452-2.867-1.584-4.13-5.4-7.14-6.884-4.88-2.4-6.876,4.236-5.408,7.834.6,1.465,2.389,2.537,2.86,4.092,1.085,3.582-3.879,7.311-6.958,7.767-2.162.321-4.218-1.567-6.473-.755-2.16.78-2.1,2.682-3.23,4.327-2.169,3.162-6.644,4.538-9.72,6.8a7.414,7.414,0,0,0-2.488,8.631c.475,1.388,1.533,2.549,1.969,3.96.475,1.535.28,3.068,1.064,4.6,1.341,2.624,4.2,4.277,5.731,6.675,4.026,6.313-1.565,7.835-6.615,8.627-6.04.947-12.411.748-18,3.566-3.22,1.623-5.692,6.257-9.385,3.724-1.723-1.184-1.879-3.088-4.615-2.082-2.076.762-2.521,2.921-3.581,4.839-4.009,7.258-11.065,13.376-5.131,21.582,2.383,3.294,5.331,5.095,5.986,9.176.605,3.758.362,9.351-2.414,12.393-11.537,12.591-44.39-32.573-68.908-12.858-16.957,13.636-.325,32.516-14,47.56,1.185,2.13,2.574,3.656,3.883,5.835-8.491,5.379-3.046,7.79-3.481,14.734-.14,2.231-1.646,3.345-2.636,5.137-.857,1.547-1.042,3.6-1.947,5.125-7.093,11.97-10.974-8.244-18.016-4.8-3.031,1.482-2.419,6.4-3.625,9.043-.971,2.132-5,7.932-2.1,9.5L184.269,602s-.385-8.881-.81-13.213c-.3-3.075-4.363-9.7-.546-12.083,1.277-.8,4.705-.63,6.216-.854a7.367,7.367,0,0,1,2.965-.285c1.368.377,1.059,1.019,1.875,1.618,1.993,1.463,3.084,1.513,5.731,1.417,2.158-.08,4.663-.671,5.819,1.288.521.883.5,5.034,1.671,4.854l78.475-.27,89.26-1.347,12.675.27,60.945,3.5c72.616.171,153.223,10.955,224.873.311Q675.367,586.916,677.329,586.53Z" transform="translate(1.535 0)" fill="#ededed"/>
    <path id="Path_5731" data-name="Path 5731" d="M12.5,560.9c-3.234-3.716,6.536-10.773,9.927-3.636,1.136,2.391,1.7,6.321-.264,8.624-2.5,2.929-4.923.222-6.827-1.573C14.544,563.577,12.5,560.9,12.5,560.9Z" transform="translate(0 31.928)" fill="#ededed"/>
  </g>
</svg>
