<svg xmlns="http://www.w3.org/2000/svg" xmlns:xlink="http://www.w3.org/1999/xlink" width="30.642" height="26.096" viewBox="0 0 30.642 26.096">
  <defs>
    <filter id="Path_3" x="0" y="0" width="30.642" height="26.096" filterUnits="userSpaceOnUse">
      <feOffset dx="1" dy="2" input="SourceAlpha"/>
      <feGaussianBlur result="blur"/>
      <feFlood flood-opacity="0.161"/>
      <feComposite operator="in" in2="blur"/>
      <feComposite in="SourceGraphic"/>
    </filter>
  </defs>
  <g transform="matrix(1, 0, 0, 1, 0, 0)" filter="url(#Path_3)">
    <path id="Path_3-2" data-name="Path 3" d="M27.262,49a6.236,6.236,0,0,1-5.642-3.06A11.615,11.615,0,0,1,20,39.629a15.669,15.669,0,0,1,2.438-8.606,16.842,16.842,0,0,1,7.41-6.12l.861,1.721a12.92,12.92,0,0,0-5.116,3.92A8.657,8.657,0,0,0,23.438,36,6.357,6.357,0,0,0,23.724,38a5.448,5.448,0,0,1,3.538-1.243,6.091,6.091,0,0,1,4.351,1.673,5.833,5.833,0,0,1,1.769,4.446A6.041,6.041,0,0,1,27.262,49ZM11.007,49a6.236,6.236,0,0,1-5.642-3.06A11.615,11.615,0,0,1,3.74,39.629a15.669,15.669,0,0,1,2.438-8.606,16.842,16.842,0,0,1,7.41-6.12l.861,1.721a12.92,12.92,0,0,0-5.116,3.92A8.657,8.657,0,0,0,7.182,36,6.357,6.357,0,0,0,7.469,38a5.448,5.448,0,0,1,3.538-1.243,6.091,6.091,0,0,1,4.351,1.673,5.833,5.833,0,0,1,1.769,4.446A6.041,6.041,0,0,1,11.007,49Z" transform="translate(-3.74 -24.9)" fill="#b44446"/>
  </g>
</svg>
