<svg xmlns="http://www.w3.org/2000/svg" xmlns:xlink="http://www.w3.org/1999/xlink" width="291.864" height="57.938" viewBox="0 0 291.864 57.938">
  <defs>
    <linearGradient id="linear-gradient" x1="0.5" y1="0.069" x2="0.5" y2="0.659" gradientUnits="objectBoundingBox">
      <stop offset="0" stop-color="#943739"/>
      <stop offset="1" stop-color="#732c2f"/>
    </linearGradient>
    <linearGradient id="linear-gradient-2" x1="0.5" y1="0.478" x2="0.5" y2="0.981" xlink:href="#linear-gradient"/>
  </defs>
  <g id="Layer_1" data-name="Layer 1" transform="translate(-12.277 -43.244)">
    <g id="Group_3118" data-name="Group 3118" transform="translate(88.456 65.338)">
      <path id="Path_5736" data-name="Path 5736" d="M131.173,76.081h1.219l2.584,6.288,2.584-6.288h1.219l-3.047,7.288,3.632,8.433,6.629-15.844h1.365l-7.41,17.307H138.8l-3.8-8.9-3.827,8.9h-1.146l-7.386-17.307h1.34L130.637,91.8l3.583-8.433Z" transform="translate(-122.642 -75.472)" fill="#464749"/>
      <path id="Path_5737" data-name="Path 5737" d="M160.816,77.5V75.253h1.219V77.5Zm0,15.551V80.372h1.219V93.047Z" transform="translate(-134.466 -75.253)" fill="#464749"/>
      <path id="Path_5738" data-name="Path 5738" d="M167.383,75.253h1.243V90.536a1.539,1.539,0,0,0,.4,1.122,1.475,1.475,0,0,0,1.109.414,4.146,4.146,0,0,0,.646-.061,3.427,3.427,0,0,0,.694-.183l.244.975a5.044,5.044,0,0,1-1.024.28,6.057,6.057,0,0,1-1.048.11A2.225,2.225,0,0,1,168,92.571a2.257,2.257,0,0,1-.622-1.67Z" transform="translate(-136.501 -75.253)" fill="#464749"/>
      <path id="Path_5739" data-name="Path 5739" d="M180.591,92.787c-.066.032-.175.094-.329.182a3.4,3.4,0,0,1-.585.257,7.139,7.139,0,0,1-.792.219,4.39,4.39,0,0,1-.951.1,3.1,3.1,0,0,1-.962-.146,2.284,2.284,0,0,1-.792-.439,2.085,2.085,0,0,1-.536-.707,2.262,2.262,0,0,1-.195-.975V81.721h-1.78v-1h1.78V76.383h1.218v4.339h2.949v1h-2.949v9.262a1.225,1.225,0,0,0,.487,1.06,1.824,1.824,0,0,0,1.1.353,3.065,3.065,0,0,0,1.3-.256q.548-.256.67-.329Z" transform="translate(-138.447 -75.603)" fill="#464749"/>
      <path id="Path_5740" data-name="Path 5740" d="M206.057,93.167l-2.217-2.316a7.74,7.74,0,0,1-2.341,1.864,6.368,6.368,0,0,1-2.974.7,6.718,6.718,0,0,1-2.06-.317,5.463,5.463,0,0,1-1.742-.915,4.411,4.411,0,0,1-1.195-1.438,4.072,4.072,0,0,1-.439-1.913,4.222,4.222,0,0,1,.305-1.621,5.11,5.11,0,0,1,.828-1.365,8.913,8.913,0,0,1,1.219-1.182q.694-.56,1.474-1.072-.682-.732-1.158-1.329a10.315,10.315,0,0,1-.768-1.084,4.116,4.116,0,0,1-.426-.939,3.1,3.1,0,0,1-.134-.89,3.2,3.2,0,0,1,.329-1.426,3.934,3.934,0,0,1,.89-1.182,4.09,4.09,0,0,1,1.341-.8,4.753,4.753,0,0,1,1.681-.293,4.471,4.471,0,0,1,1.536.257,4.044,4.044,0,0,1,1.231.694,3.115,3.115,0,0,1,.817,1.048,3,3,0,0,1,.292,1.316,3.093,3.093,0,0,1-.316,1.377,4.868,4.868,0,0,1-.866,1.219,9.506,9.506,0,0,1-1.267,1.1q-.72.525-1.5,1.06l5.216,5.412a8.611,8.611,0,0,0,.83-2.085,9.386,9.386,0,0,0,.292-2.352h1.073a10.069,10.069,0,0,1-1.463,5.216l3.145,3.266Zm-7.385-.756a5.085,5.085,0,0,0,2.51-.622,6.473,6.473,0,0,0,1.95-1.669l-5.508-5.777q-.708.489-1.3.975a8.029,8.029,0,0,0-1.06,1.035,4.436,4.436,0,0,0-.719,1.171,3.518,3.518,0,0,0-.255,1.352,2.952,2.952,0,0,0,.389,1.536,3.656,3.656,0,0,0,1.012,1.109,4.369,4.369,0,0,0,1.414.67A5.866,5.866,0,0,0,198.672,92.411Zm-3.1-13.089a2.41,2.41,0,0,0,.086.634,2.861,2.861,0,0,0,.341.732,9.065,9.065,0,0,0,.707.962q.45.549,1.158,1.3a20.313,20.313,0,0,0,2.584-1.938,2.668,2.668,0,0,0,.975-2.011,2.139,2.139,0,0,0-.779-1.695,2.961,2.961,0,0,0-2-.67,3.318,3.318,0,0,0-1.219.219,3.258,3.258,0,0,0-.975.585,2.63,2.63,0,0,0-.645.853A2.345,2.345,0,0,0,195.576,79.322Z" transform="translate(-144.463 -75.373)" fill="#8e282c"/>
      <path id="Path_5741" data-name="Path 5741" d="M225.083,93.266V75.959h1.243V86.465l10.091-10.506h1.438l-7.19,7.581,7.556,9.726h-1.414L229.86,84.3l-3.534,3.632v5.338Z" transform="translate(-154.373 -75.472)" fill="#464749"/>
      <path id="Path_5742" data-name="Path 5742" d="M246.236,75.253h1.243V90.536a1.539,1.539,0,0,0,.4,1.122,1.472,1.472,0,0,0,1.109.414,4.154,4.154,0,0,0,.647-.061,3.408,3.408,0,0,0,.694-.183l.244.975a5.056,5.056,0,0,1-1.024.28,6.056,6.056,0,0,1-1.048.11,2.227,2.227,0,0,1-1.646-.622,2.26,2.26,0,0,1-.621-1.67Z" transform="translate(-160.926 -75.253)" fill="#464749"/>
      <path id="Path_5743" data-name="Path 5743" d="M257.007,95.489a4.351,4.351,0,0,1-2.961-1.133,3.671,3.671,0,0,1-.89-1.243,3.8,3.8,0,0,1-.317-1.548,2.99,2.99,0,0,1,.39-1.512,3.745,3.745,0,0,1,1.084-1.182,5.4,5.4,0,0,1,1.67-.78,7.762,7.762,0,0,1,2.145-.28,11.806,11.806,0,0,1,2.06.183,10.22,10.22,0,0,1,1.864.5V87.25a3.95,3.95,0,0,0-1.023-2.864,3.685,3.685,0,0,0-2.78-1.06,5.588,5.588,0,0,0-1.962.389,10.036,10.036,0,0,0-2.108,1.122l-.463-.829a8.322,8.322,0,0,1,4.632-1.657,4.849,4.849,0,0,1,3.607,1.329,4.984,4.984,0,0,1,1.316,3.668v6.192c0,.406.178.609.536.609v1.1a2.409,2.409,0,0,1-.256.036c-.09.008-.166.012-.231.012a.99.99,0,0,1-.78-.329,1.375,1.375,0,0,1-.342-.792V93.124a5.7,5.7,0,0,1-2.243,1.755A7.156,7.156,0,0,1,257.007,95.489Zm.244-.975a6.214,6.214,0,0,0,2.6-.536,4.44,4.44,0,0,0,1.816-1.414,1.634,1.634,0,0,0,.389-.975V89.347a9.864,9.864,0,0,0-1.828-.512,11.214,11.214,0,0,0-1.975-.17,6.77,6.77,0,0,0-1.73.207,4.591,4.591,0,0,0-1.34.573,2.651,2.651,0,0,0-.866.89,2.265,2.265,0,0,0-.3,1.158,2.966,2.966,0,0,0,.244,1.194,2.821,2.821,0,0,0,.682.963,3.269,3.269,0,0,0,1.036.634A3.508,3.508,0,0,0,257.251,94.514Z" transform="translate(-162.971 -77.452)" fill="#464749"/>
      <path id="Path_5744" data-name="Path 5744" d="M276.307,95.588q-4.047,0-4.046-5.606V82.669h1.219V89.81q0,4.681,3.193,4.681a4.449,4.449,0,0,0,1.56-.28,5.472,5.472,0,0,0,2.571-1.987,6.13,6.13,0,0,0,.792-1.561V82.669h1.218V93.638q0,.609.512.609v1.1a1.161,1.161,0,0,1-.219.024h-.146a1.338,1.338,0,0,1-.866-.305.993.993,0,0,1-.378-.816v-1.9a6.1,6.1,0,0,1-5.411,3.242Z" transform="translate(-168.987 -77.55)" fill="#464749"/>
      <path id="Path_5745" data-name="Path 5745" d="M295.8,95.489A8.151,8.151,0,0,1,293,95a6.481,6.481,0,0,1-2.34-1.463l.609-.829a7.115,7.115,0,0,0,2.12,1.365,6.448,6.448,0,0,0,2.413.438,4.632,4.632,0,0,0,2.669-.694,2.22,2.22,0,0,0,1.011-1.938,1.806,1.806,0,0,0-.255-.988,2.053,2.053,0,0,0-.768-.682,6.349,6.349,0,0,0-1.267-.5q-.756-.218-1.755-.462-1.074-.243-1.866-.487a5.016,5.016,0,0,1-1.3-.585,2.261,2.261,0,0,1-.768-.829,2.665,2.665,0,0,1-.256-1.243,3.562,3.562,0,0,1,.366-1.657,3.26,3.26,0,0,1,1.011-1.17,4.664,4.664,0,0,1,1.487-.7,6.738,6.738,0,0,1,1.791-.231,6.536,6.536,0,0,1,2.633.5,4.621,4.621,0,0,1,1.779,1.28l-.683.658a3.868,3.868,0,0,0-1.646-1.1,6.3,6.3,0,0,0-2.157-.365,5.8,5.8,0,0,0-1.329.146,3.227,3.227,0,0,0-1.084.463,2.293,2.293,0,0,0-.732.817,2.475,2.475,0,0,0-.267,1.182,1.913,1.913,0,0,0,.182.9,1.544,1.544,0,0,0,.585.585,4.294,4.294,0,0,0,1.036.427q.633.183,1.511.4,1.194.292,2.12.56a6.149,6.149,0,0,1,1.548.658,2.9,2.9,0,0,1,.95.926,2.58,2.58,0,0,1,.329,1.365,3.239,3.239,0,0,1-1.328,2.717A5.712,5.712,0,0,1,295.8,95.489Z" transform="translate(-174.685 -77.452)" fill="#464749"/>
      <path id="Path_5746" data-name="Path 5746" d="M308.385,77.5V75.253H309.6V77.5Zm0,15.551V80.372H309.6V93.047Z" transform="translate(-180.176 -75.253)" fill="#464749"/>
      <path id="Path_5747" data-name="Path 5747" d="M325.171,95.246h-1.219V88.177a7.042,7.042,0,0,0-.7-3.583,2.4,2.4,0,0,0-2.205-1.122,4.584,4.584,0,0,0-1.6.293,5.407,5.407,0,0,0-1.475.829,6.047,6.047,0,0,0-1.194,1.255,5.144,5.144,0,0,0-.755,1.548v7.849h-1.219V82.57h1.145v3.023a5.949,5.949,0,0,1,.963-1.329,6.084,6.084,0,0,1,1.292-1.024,6.516,6.516,0,0,1,1.523-.659,5.973,5.973,0,0,1,1.657-.231,3.114,3.114,0,0,1,2.925,1.45,8.276,8.276,0,0,1,.854,4.156Z" transform="translate(-182.167 -77.452)" fill="#464749"/>
      <path id="Path_5748" data-name="Path 5748" d="M338.993,95.44a5.319,5.319,0,0,1-2.413-.549,6.041,6.041,0,0,1-1.889-1.462,6.975,6.975,0,0,1-1.243-2.084A6.638,6.638,0,0,1,333,88.933a7.318,7.318,0,0,1,.427-2.486,6.66,6.66,0,0,1,1.206-2.109,5.813,5.813,0,0,1,1.865-1.45,5.34,5.34,0,0,1,2.4-.536,4.894,4.894,0,0,1,2.889.866,8.309,8.309,0,0,1,2.084,2.108V82.57h1.122V95.489a5.025,5.025,0,0,1-.487,2.267,4.755,4.755,0,0,1-1.3,1.621,5.71,5.71,0,0,1-1.9.975,7.828,7.828,0,0,1-2.279.329,8.623,8.623,0,0,1-1.974-.208,5.917,5.917,0,0,1-1.548-.585,5.124,5.124,0,0,1-1.195-.926,6.654,6.654,0,0,1-.914-1.207l.829-.56a4.554,4.554,0,0,0,2.047,1.889,6.493,6.493,0,0,0,2.754.6,6.187,6.187,0,0,0,1.841-.268,4.465,4.465,0,0,0,1.511-.792,3.771,3.771,0,0,0,1.024-1.3,4.147,4.147,0,0,0,.378-1.828V92.71A5.852,5.852,0,0,1,341.7,94.7,5.349,5.349,0,0,1,338.993,95.44Zm.293-1.048a4.22,4.22,0,0,0,1.572-.305,5.544,5.544,0,0,0,1.389-.792,4.625,4.625,0,0,0,1.023-1.1,3.112,3.112,0,0,0,.5-1.219V86.811a5.5,5.5,0,0,0-.78-1.353,5.3,5.3,0,0,0-1.109-1.06,5.509,5.509,0,0,0-1.341-.694,4.3,4.3,0,0,0-1.45-.256,4.242,4.242,0,0,0-2.048.487A4.913,4.913,0,0,0,335.52,85.2a5.7,5.7,0,0,0-.95,1.767,6.262,6.262,0,0,0-.329,1.987,5.533,5.533,0,0,0,.39,2.071,5.731,5.731,0,0,0,1.073,1.731,5.068,5.068,0,0,0,1.609,1.194A4.548,4.548,0,0,0,339.286,94.392Z" transform="translate(-187.8 -77.452)" fill="#464749"/>
      <path id="Path_5749" data-name="Path 5749" d="M355.635,102.076,356,100.15h-.439V98.03h1.243v2.12l-.511,1.926Z" transform="translate(-194.79 -82.308)" fill="#464749"/>
      <path id="Path_5750" data-name="Path 5750" d="M370.649,94.665V80.478h5.835a3.66,3.66,0,0,1,1.658.38,4.233,4.233,0,0,1,1.309,1.009,4.831,4.831,0,0,1,.859,1.418,4.325,4.325,0,0,1,.31,1.589,4.821,4.821,0,0,1-.29,1.658,4.545,4.545,0,0,1-.819,1.419,4.021,4.021,0,0,1-1.269.989,3.611,3.611,0,0,1-1.639.369h-4.935v5.356Zm1.019-6.294h4.9a2.7,2.7,0,0,0,1.259-.29,2.893,2.893,0,0,0,.949-.779,3.612,3.612,0,0,0,.6-1.119,4.1,4.1,0,0,0,.209-1.309,3.573,3.573,0,0,0-.249-1.329,3.688,3.688,0,0,0-.679-1.109,3.274,3.274,0,0,0-1-.759,2.7,2.7,0,0,0-1.209-.28h-4.775Z" transform="translate(-199.463 -76.871)" fill="#464749"/>
      <path id="Path_5751" data-name="Path 5751" d="M387.9,94.665V80.478h1.019V93.746h8.472v.919Z" transform="translate(-204.807 -76.871)" fill="#464749"/>
      <path id="Path_5752" data-name="Path 5752" d="M404,94.665V80.478h1.019V93.746h8.472v.919Z" transform="translate(-209.792 -76.871)" fill="#464749"/>
      <path id="Path_5753" data-name="Path 5753" d="M417.371,87.436a7.589,7.589,0,0,1,.449-2.548,7.072,7.072,0,0,1,1.309-2.267,6.754,6.754,0,0,1,2.108-1.629,6.239,6.239,0,0,1,2.847-.629,5.817,5.817,0,0,1,3.238.869,5.483,5.483,0,0,1,2,2.227l-.839.48a4.777,4.777,0,0,0-.889-1.239,4.671,4.671,0,0,0-1.1-.809,4.859,4.859,0,0,0-1.229-.449A5.878,5.878,0,0,0,424,81.3a5.057,5.057,0,0,0-2.4.549,5.672,5.672,0,0,0-1.759,1.429,6.234,6.234,0,0,0-1.089,1.988,7.029,7.029,0,0,0-.369,2.228,6.6,6.6,0,0,0,.44,2.4,6.684,6.684,0,0,0,1.2,2.008,5.822,5.822,0,0,0,1.8,1.389,4.931,4.931,0,0,0,2.238.52,5.727,5.727,0,0,0,1.318-.16,5.138,5.138,0,0,0,1.3-.5,5.3,5.3,0,0,0,1.159-.87,4.622,4.622,0,0,0,.9-1.249l.88.42a4.763,4.763,0,0,1-.979,1.418,6.2,6.2,0,0,1-1.378,1.04,6.577,6.577,0,0,1-1.609.629,6.931,6.931,0,0,1-1.668.21,5.61,5.61,0,0,1-2.668-.639,7.062,7.062,0,0,1-2.088-1.668,7.72,7.72,0,0,1-1.368-2.338A7.54,7.54,0,0,1,417.371,87.436Z" transform="translate(-213.935 -76.836)" fill="#464749"/>
    </g>
    <g id="Group_3119" data-name="Group 3119" transform="translate(12.277 43.244)">
      <path id="Path_5754" data-name="Path 5754" d="M14.7,80.079a30.093,30.093,0,0,1,1.5-2.967,38.988,38.988,0,0,1,2.968-4.572A55.284,55.284,0,0,1,24.226,66.9a68.765,68.765,0,0,1,7.46-6.417q.761-.6.762-.762a.142.142,0,0,0-.161-.161q-3.008,0-10.007,4.011t-8.563,6.537c-.08.241-.2.361-.361.361s-.24-.2-.24-.6a5.079,5.079,0,0,1,1.042-2.145A18.853,18.853,0,0,1,17.187,64.4a36.848,36.848,0,0,1,4.432-3.389,23.979,23.979,0,0,1,5.675-2.667,20.376,20.376,0,0,1,6.4-1.063c.214.081.487.181.822.3a6.122,6.122,0,0,1,1.324.762q.821.582.822,1.063a1.107,1.107,0,0,1-.2.722Q33.37,62.935,29.54,66.9a84.425,84.425,0,0,0-5.875,6.618l-2.888,3.77a1.156,1.156,0,0,0-.24.561v.04l.642-.321a.456.456,0,0,0,.12-.08q14.638-10.307,19.612-14.6a.381.381,0,0,1,.321-.16.312.312,0,0,1,.28.12,7.986,7.986,0,0,0,.762.742q.682.622.682.922a.628.628,0,0,1-.24.5,68.568,68.568,0,0,0-8.1,9.465q-4.131,5.7-4.13,8.783a.319.319,0,0,0,.361.361q.8,0,3.769-2.166t6.758-5.494a88.172,88.172,0,0,0,8.021-8.161A62.6,62.6,0,0,0,56.311,58.4q.36-.761.561-1.263a.666.666,0,0,1,.622-.5q.421,0,.882,1.183a5.831,5.831,0,0,1,.461,2.065q0,1.405-3.208,5.615-2.162,2.837-4.819,5.8c1.087-1.19,2.315-2.461,3.7-3.818a120.132,120.132,0,0,1,9.886-8.643.647.647,0,0,1,.522-.24.8.8,0,0,1,.6.321l.4.441a.448.448,0,0,1,.2.341c0,.12-.155.354-.461.7s-1.411,1.579-3.309,3.69q-6.3,6.939-7.219,8.141c-.321.321-.481.516-.481.582s.026.1.08.1a1.726,1.726,0,0,0,.4-.12,50.341,50.341,0,0,0,10.588-4.953c1.492-.863,2.726-1.635,3.714-2.316A28.969,28.969,0,1,0,13.994,82.054c.043-.155.1-.322.165-.51Q14.44,80.782,14.7,80.079Z" transform="translate(-12.277 -43.244)" fill="url(#linear-gradient)"/>
      <path id="Path_5755" data-name="Path 5755" d="M75.87,86.926q0,.682,1.744,2.887a41.553,41.553,0,0,0,4.131,4.452,12.86,12.86,0,0,0,3.77,2.747,2.986,2.986,0,0,1,1.039.578,28.837,28.837,0,0,0,3.358-13.538c0-.872-.046-1.734-.121-2.586a99.4,99.4,0,0,1-13.24,5.058C76.1,86.659,75.87,86.792,75.87,86.926Z" transform="translate(-31.975 -55.083)" fill="#8e282c"/>
      <path id="Path_5756" data-name="Path 5756" d="M62.56,99.738a9.866,9.866,0,0,1-2.406-2.166q-1.183-1.424-2.085-2.707t-2.106-3.148q-1.2-1.865-1.664-2.486t-.682-.622a.4.4,0,0,0-.341.16q-2.968,3.53-4.411,5.6a22.5,22.5,0,0,0-2.407,4.431q-.039.361-.321.361-.36,0-1.183-.882a3.587,3.587,0,0,1-.982-1.845q0-2.125,4.973-8.623c.7-.933,1.536-1.943,2.492-3.021q-.985,1.081-2.033,2.179a68.015,68.015,0,0,1-9.1,8q-4.813,3.51-7.58,3.509a4.2,4.2,0,0,1-2.627-1.042,4.061,4.061,0,0,1-1.3-3.369,12.027,12.027,0,0,1,1.724-5.936,10.056,10.056,0,0,1,1.645-2.165l.922-1.083.161-.321v-.04c0-.053-.014-.08-.041-.08q-.12,0-.361.241Q23.9,92.538,20.728,95.125T17,97.713a.967.967,0,0,1-.607-.217,28.976,28.976,0,0,0,50.943,2.43,6.285,6.285,0,0,1-2.307.554A4.716,4.716,0,0,1,62.56,99.738Z" transform="translate(-13.551 -56.004)" fill="url(#linear-gradient-2)"/>
      <path id="Path_5757" data-name="Path 5757" d="M86.827,107a6.129,6.129,0,0,0,3.306-1.5s-.5,1.312-3.464,3.385S86.827,107,86.827,107Z" transform="translate(-34.924 -62.528)" fill="#8e282c"/>
      <path id="Path_5758" data-name="Path 5758" d="M106.107,61.736a1.955,1.955,0,0,0-1.246-.166,2.456,2.456,0,0,0-.556.185,3.3,3.3,0,0,0-1.612,2.023c.07-.205.334-.292.529-.31a1.414,1.414,0,0,1,.815.231,3.689,3.689,0,0,1,.759.63,2.913,2.913,0,0,1,.732,1.249,2.655,2.655,0,0,1-.039,1.432c-.706,2.4-2.858,5.173-9.59,8.328l.047.706s7.462-2.758,10.438-6.915a7.419,7.419,0,0,0,1.394-3.268,5.042,5.042,0,0,0-.28-2.513A3,3,0,0,0,106.107,61.736Z" transform="translate(-38.179 -48.909)" fill="#8e282c"/>
    </g>
  </g>
</svg>
